%TF.GenerationSoftware,KiCad,Pcbnew,9.0.3*%
%TF.CreationDate,2025-12-16T09:59:01+01:00*%
%TF.ProjectId,PTP_Darijo_Matesic_Project1,5054505f-4461-4726-996a-6f5f4d617465,rev?*%
%TF.SameCoordinates,Original*%
%TF.FileFunction,Legend,Top*%
%TF.FilePolarity,Positive*%
%FSLAX46Y46*%
G04 Gerber Fmt 4.6, Leading zero omitted, Abs format (unit mm)*
G04 Created by KiCad (PCBNEW 9.0.3) date 2025-12-16 09:59:01*
%MOMM*%
%LPD*%
G01*
G04 APERTURE LIST*
%ADD10C,0.150000*%
%ADD11C,0.120000*%
G04 APERTURE END LIST*
D10*
X119238095Y-48234819D02*
X119238095Y-49044342D01*
X119238095Y-49044342D02*
X119285714Y-49139580D01*
X119285714Y-49139580D02*
X119333333Y-49187200D01*
X119333333Y-49187200D02*
X119428571Y-49234819D01*
X119428571Y-49234819D02*
X119619047Y-49234819D01*
X119619047Y-49234819D02*
X119714285Y-49187200D01*
X119714285Y-49187200D02*
X119761904Y-49139580D01*
X119761904Y-49139580D02*
X119809523Y-49044342D01*
X119809523Y-49044342D02*
X119809523Y-48234819D01*
X120714285Y-48568152D02*
X120714285Y-49234819D01*
X120476190Y-48187200D02*
X120238095Y-48901485D01*
X120238095Y-48901485D02*
X120857142Y-48901485D01*
X89083333Y-44284819D02*
X88750000Y-43808628D01*
X88511905Y-44284819D02*
X88511905Y-43284819D01*
X88511905Y-43284819D02*
X88892857Y-43284819D01*
X88892857Y-43284819D02*
X88988095Y-43332438D01*
X88988095Y-43332438D02*
X89035714Y-43380057D01*
X89035714Y-43380057D02*
X89083333Y-43475295D01*
X89083333Y-43475295D02*
X89083333Y-43618152D01*
X89083333Y-43618152D02*
X89035714Y-43713390D01*
X89035714Y-43713390D02*
X88988095Y-43761009D01*
X88988095Y-43761009D02*
X88892857Y-43808628D01*
X88892857Y-43808628D02*
X88511905Y-43808628D01*
X89416667Y-43284819D02*
X90035714Y-43284819D01*
X90035714Y-43284819D02*
X89702381Y-43665771D01*
X89702381Y-43665771D02*
X89845238Y-43665771D01*
X89845238Y-43665771D02*
X89940476Y-43713390D01*
X89940476Y-43713390D02*
X89988095Y-43761009D01*
X89988095Y-43761009D02*
X90035714Y-43856247D01*
X90035714Y-43856247D02*
X90035714Y-44094342D01*
X90035714Y-44094342D02*
X89988095Y-44189580D01*
X89988095Y-44189580D02*
X89940476Y-44237200D01*
X89940476Y-44237200D02*
X89845238Y-44284819D01*
X89845238Y-44284819D02*
X89559524Y-44284819D01*
X89559524Y-44284819D02*
X89464286Y-44237200D01*
X89464286Y-44237200D02*
X89416667Y-44189580D01*
X84583333Y-50509580D02*
X84535714Y-50557200D01*
X84535714Y-50557200D02*
X84392857Y-50604819D01*
X84392857Y-50604819D02*
X84297619Y-50604819D01*
X84297619Y-50604819D02*
X84154762Y-50557200D01*
X84154762Y-50557200D02*
X84059524Y-50461961D01*
X84059524Y-50461961D02*
X84011905Y-50366723D01*
X84011905Y-50366723D02*
X83964286Y-50176247D01*
X83964286Y-50176247D02*
X83964286Y-50033390D01*
X83964286Y-50033390D02*
X84011905Y-49842914D01*
X84011905Y-49842914D02*
X84059524Y-49747676D01*
X84059524Y-49747676D02*
X84154762Y-49652438D01*
X84154762Y-49652438D02*
X84297619Y-49604819D01*
X84297619Y-49604819D02*
X84392857Y-49604819D01*
X84392857Y-49604819D02*
X84535714Y-49652438D01*
X84535714Y-49652438D02*
X84583333Y-49700057D01*
X85440476Y-49938152D02*
X85440476Y-50604819D01*
X85202381Y-49557200D02*
X84964286Y-50271485D01*
X84964286Y-50271485D02*
X85583333Y-50271485D01*
X153997142Y-57814819D02*
X153663809Y-57338628D01*
X153425714Y-57814819D02*
X153425714Y-56814819D01*
X153425714Y-56814819D02*
X153806666Y-56814819D01*
X153806666Y-56814819D02*
X153901904Y-56862438D01*
X153901904Y-56862438D02*
X153949523Y-56910057D01*
X153949523Y-56910057D02*
X153997142Y-57005295D01*
X153997142Y-57005295D02*
X153997142Y-57148152D01*
X153997142Y-57148152D02*
X153949523Y-57243390D01*
X153949523Y-57243390D02*
X153901904Y-57291009D01*
X153901904Y-57291009D02*
X153806666Y-57338628D01*
X153806666Y-57338628D02*
X153425714Y-57338628D01*
X154949523Y-57814819D02*
X154378095Y-57814819D01*
X154663809Y-57814819D02*
X154663809Y-56814819D01*
X154663809Y-56814819D02*
X154568571Y-56957676D01*
X154568571Y-56957676D02*
X154473333Y-57052914D01*
X154473333Y-57052914D02*
X154378095Y-57100533D01*
X155854285Y-56814819D02*
X155378095Y-56814819D01*
X155378095Y-56814819D02*
X155330476Y-57291009D01*
X155330476Y-57291009D02*
X155378095Y-57243390D01*
X155378095Y-57243390D02*
X155473333Y-57195771D01*
X155473333Y-57195771D02*
X155711428Y-57195771D01*
X155711428Y-57195771D02*
X155806666Y-57243390D01*
X155806666Y-57243390D02*
X155854285Y-57291009D01*
X155854285Y-57291009D02*
X155901904Y-57386247D01*
X155901904Y-57386247D02*
X155901904Y-57624342D01*
X155901904Y-57624342D02*
X155854285Y-57719580D01*
X155854285Y-57719580D02*
X155806666Y-57767200D01*
X155806666Y-57767200D02*
X155711428Y-57814819D01*
X155711428Y-57814819D02*
X155473333Y-57814819D01*
X155473333Y-57814819D02*
X155378095Y-57767200D01*
X155378095Y-57767200D02*
X155330476Y-57719580D01*
X98666666Y-46454819D02*
X98666666Y-47169104D01*
X98666666Y-47169104D02*
X98619047Y-47311961D01*
X98619047Y-47311961D02*
X98523809Y-47407200D01*
X98523809Y-47407200D02*
X98380952Y-47454819D01*
X98380952Y-47454819D02*
X98285714Y-47454819D01*
X99666666Y-47454819D02*
X99095238Y-47454819D01*
X99380952Y-47454819D02*
X99380952Y-46454819D01*
X99380952Y-46454819D02*
X99285714Y-46597676D01*
X99285714Y-46597676D02*
X99190476Y-46692914D01*
X99190476Y-46692914D02*
X99095238Y-46740533D01*
X76738095Y-22004819D02*
X76738095Y-21004819D01*
X76738095Y-21481009D02*
X77309523Y-21481009D01*
X77309523Y-22004819D02*
X77309523Y-21004819D01*
X78309523Y-22004819D02*
X77738095Y-22004819D01*
X78023809Y-22004819D02*
X78023809Y-21004819D01*
X78023809Y-21004819D02*
X77928571Y-21147676D01*
X77928571Y-21147676D02*
X77833333Y-21242914D01*
X77833333Y-21242914D02*
X77738095Y-21290533D01*
X183238095Y-22504819D02*
X183238095Y-21504819D01*
X183238095Y-21981009D02*
X183809523Y-21981009D01*
X183809523Y-22504819D02*
X183809523Y-21504819D01*
X184190476Y-21504819D02*
X184809523Y-21504819D01*
X184809523Y-21504819D02*
X184476190Y-21885771D01*
X184476190Y-21885771D02*
X184619047Y-21885771D01*
X184619047Y-21885771D02*
X184714285Y-21933390D01*
X184714285Y-21933390D02*
X184761904Y-21981009D01*
X184761904Y-21981009D02*
X184809523Y-22076247D01*
X184809523Y-22076247D02*
X184809523Y-22314342D01*
X184809523Y-22314342D02*
X184761904Y-22409580D01*
X184761904Y-22409580D02*
X184714285Y-22457200D01*
X184714285Y-22457200D02*
X184619047Y-22504819D01*
X184619047Y-22504819D02*
X184333333Y-22504819D01*
X184333333Y-22504819D02*
X184238095Y-22457200D01*
X184238095Y-22457200D02*
X184190476Y-22409580D01*
X140044819Y-44138094D02*
X139044819Y-44138094D01*
X139044819Y-44138094D02*
X139044819Y-43899999D01*
X139044819Y-43899999D02*
X139092438Y-43757142D01*
X139092438Y-43757142D02*
X139187676Y-43661904D01*
X139187676Y-43661904D02*
X139282914Y-43614285D01*
X139282914Y-43614285D02*
X139473390Y-43566666D01*
X139473390Y-43566666D02*
X139616247Y-43566666D01*
X139616247Y-43566666D02*
X139806723Y-43614285D01*
X139806723Y-43614285D02*
X139901961Y-43661904D01*
X139901961Y-43661904D02*
X139997200Y-43757142D01*
X139997200Y-43757142D02*
X140044819Y-43899999D01*
X140044819Y-43899999D02*
X140044819Y-44138094D01*
X139044819Y-42661904D02*
X139044819Y-43138094D01*
X139044819Y-43138094D02*
X139521009Y-43185713D01*
X139521009Y-43185713D02*
X139473390Y-43138094D01*
X139473390Y-43138094D02*
X139425771Y-43042856D01*
X139425771Y-43042856D02*
X139425771Y-42804761D01*
X139425771Y-42804761D02*
X139473390Y-42709523D01*
X139473390Y-42709523D02*
X139521009Y-42661904D01*
X139521009Y-42661904D02*
X139616247Y-42614285D01*
X139616247Y-42614285D02*
X139854342Y-42614285D01*
X139854342Y-42614285D02*
X139949580Y-42661904D01*
X139949580Y-42661904D02*
X139997200Y-42709523D01*
X139997200Y-42709523D02*
X140044819Y-42804761D01*
X140044819Y-42804761D02*
X140044819Y-43042856D01*
X140044819Y-43042856D02*
X139997200Y-43138094D01*
X139997200Y-43138094D02*
X139949580Y-43185713D01*
X123833333Y-28274580D02*
X123785714Y-28322200D01*
X123785714Y-28322200D02*
X123642857Y-28369819D01*
X123642857Y-28369819D02*
X123547619Y-28369819D01*
X123547619Y-28369819D02*
X123404762Y-28322200D01*
X123404762Y-28322200D02*
X123309524Y-28226961D01*
X123309524Y-28226961D02*
X123261905Y-28131723D01*
X123261905Y-28131723D02*
X123214286Y-27941247D01*
X123214286Y-27941247D02*
X123214286Y-27798390D01*
X123214286Y-27798390D02*
X123261905Y-27607914D01*
X123261905Y-27607914D02*
X123309524Y-27512676D01*
X123309524Y-27512676D02*
X123404762Y-27417438D01*
X123404762Y-27417438D02*
X123547619Y-27369819D01*
X123547619Y-27369819D02*
X123642857Y-27369819D01*
X123642857Y-27369819D02*
X123785714Y-27417438D01*
X123785714Y-27417438D02*
X123833333Y-27465057D01*
X124214286Y-27465057D02*
X124261905Y-27417438D01*
X124261905Y-27417438D02*
X124357143Y-27369819D01*
X124357143Y-27369819D02*
X124595238Y-27369819D01*
X124595238Y-27369819D02*
X124690476Y-27417438D01*
X124690476Y-27417438D02*
X124738095Y-27465057D01*
X124738095Y-27465057D02*
X124785714Y-27560295D01*
X124785714Y-27560295D02*
X124785714Y-27655533D01*
X124785714Y-27655533D02*
X124738095Y-27798390D01*
X124738095Y-27798390D02*
X124166667Y-28369819D01*
X124166667Y-28369819D02*
X124785714Y-28369819D01*
X108314819Y-35421904D02*
X109124342Y-35421904D01*
X109124342Y-35421904D02*
X109219580Y-35374285D01*
X109219580Y-35374285D02*
X109267200Y-35326666D01*
X109267200Y-35326666D02*
X109314819Y-35231428D01*
X109314819Y-35231428D02*
X109314819Y-35040952D01*
X109314819Y-35040952D02*
X109267200Y-34945714D01*
X109267200Y-34945714D02*
X109219580Y-34898095D01*
X109219580Y-34898095D02*
X109124342Y-34850476D01*
X109124342Y-34850476D02*
X108314819Y-34850476D01*
X109314819Y-33850476D02*
X109314819Y-34421904D01*
X109314819Y-34136190D02*
X108314819Y-34136190D01*
X108314819Y-34136190D02*
X108457676Y-34231428D01*
X108457676Y-34231428D02*
X108552914Y-34326666D01*
X108552914Y-34326666D02*
X108600533Y-34421904D01*
X86753333Y-63624819D02*
X86420000Y-63148628D01*
X86181905Y-63624819D02*
X86181905Y-62624819D01*
X86181905Y-62624819D02*
X86562857Y-62624819D01*
X86562857Y-62624819D02*
X86658095Y-62672438D01*
X86658095Y-62672438D02*
X86705714Y-62720057D01*
X86705714Y-62720057D02*
X86753333Y-62815295D01*
X86753333Y-62815295D02*
X86753333Y-62958152D01*
X86753333Y-62958152D02*
X86705714Y-63053390D01*
X86705714Y-63053390D02*
X86658095Y-63101009D01*
X86658095Y-63101009D02*
X86562857Y-63148628D01*
X86562857Y-63148628D02*
X86181905Y-63148628D01*
X87705714Y-63624819D02*
X87134286Y-63624819D01*
X87420000Y-63624819D02*
X87420000Y-62624819D01*
X87420000Y-62624819D02*
X87324762Y-62767676D01*
X87324762Y-62767676D02*
X87229524Y-62862914D01*
X87229524Y-62862914D02*
X87134286Y-62910533D01*
X154644819Y-30536666D02*
X154168628Y-30869999D01*
X154644819Y-31108094D02*
X153644819Y-31108094D01*
X153644819Y-31108094D02*
X153644819Y-30727142D01*
X153644819Y-30727142D02*
X153692438Y-30631904D01*
X153692438Y-30631904D02*
X153740057Y-30584285D01*
X153740057Y-30584285D02*
X153835295Y-30536666D01*
X153835295Y-30536666D02*
X153978152Y-30536666D01*
X153978152Y-30536666D02*
X154073390Y-30584285D01*
X154073390Y-30584285D02*
X154121009Y-30631904D01*
X154121009Y-30631904D02*
X154168628Y-30727142D01*
X154168628Y-30727142D02*
X154168628Y-31108094D01*
X153644819Y-29679523D02*
X153644819Y-29869999D01*
X153644819Y-29869999D02*
X153692438Y-29965237D01*
X153692438Y-29965237D02*
X153740057Y-30012856D01*
X153740057Y-30012856D02*
X153882914Y-30108094D01*
X153882914Y-30108094D02*
X154073390Y-30155713D01*
X154073390Y-30155713D02*
X154454342Y-30155713D01*
X154454342Y-30155713D02*
X154549580Y-30108094D01*
X154549580Y-30108094D02*
X154597200Y-30060475D01*
X154597200Y-30060475D02*
X154644819Y-29965237D01*
X154644819Y-29965237D02*
X154644819Y-29774761D01*
X154644819Y-29774761D02*
X154597200Y-29679523D01*
X154597200Y-29679523D02*
X154549580Y-29631904D01*
X154549580Y-29631904D02*
X154454342Y-29584285D01*
X154454342Y-29584285D02*
X154216247Y-29584285D01*
X154216247Y-29584285D02*
X154121009Y-29631904D01*
X154121009Y-29631904D02*
X154073390Y-29679523D01*
X154073390Y-29679523D02*
X154025771Y-29774761D01*
X154025771Y-29774761D02*
X154025771Y-29965237D01*
X154025771Y-29965237D02*
X154073390Y-30060475D01*
X154073390Y-30060475D02*
X154121009Y-30108094D01*
X154121009Y-30108094D02*
X154216247Y-30155713D01*
X113261905Y-39984819D02*
X113261905Y-38984819D01*
X113261905Y-38984819D02*
X113500000Y-38984819D01*
X113500000Y-38984819D02*
X113642857Y-39032438D01*
X113642857Y-39032438D02*
X113738095Y-39127676D01*
X113738095Y-39127676D02*
X113785714Y-39222914D01*
X113785714Y-39222914D02*
X113833333Y-39413390D01*
X113833333Y-39413390D02*
X113833333Y-39556247D01*
X113833333Y-39556247D02*
X113785714Y-39746723D01*
X113785714Y-39746723D02*
X113738095Y-39841961D01*
X113738095Y-39841961D02*
X113642857Y-39937200D01*
X113642857Y-39937200D02*
X113500000Y-39984819D01*
X113500000Y-39984819D02*
X113261905Y-39984819D01*
X114785714Y-39984819D02*
X114214286Y-39984819D01*
X114500000Y-39984819D02*
X114500000Y-38984819D01*
X114500000Y-38984819D02*
X114404762Y-39127676D01*
X114404762Y-39127676D02*
X114309524Y-39222914D01*
X114309524Y-39222914D02*
X114214286Y-39270533D01*
X107388095Y-40354819D02*
X107388095Y-39354819D01*
X107959523Y-40354819D02*
X107530952Y-39783390D01*
X107959523Y-39354819D02*
X107388095Y-39926247D01*
X154984819Y-44138094D02*
X153984819Y-44138094D01*
X153984819Y-44138094D02*
X153984819Y-43899999D01*
X153984819Y-43899999D02*
X154032438Y-43757142D01*
X154032438Y-43757142D02*
X154127676Y-43661904D01*
X154127676Y-43661904D02*
X154222914Y-43614285D01*
X154222914Y-43614285D02*
X154413390Y-43566666D01*
X154413390Y-43566666D02*
X154556247Y-43566666D01*
X154556247Y-43566666D02*
X154746723Y-43614285D01*
X154746723Y-43614285D02*
X154841961Y-43661904D01*
X154841961Y-43661904D02*
X154937200Y-43757142D01*
X154937200Y-43757142D02*
X154984819Y-43899999D01*
X154984819Y-43899999D02*
X154984819Y-44138094D01*
X153984819Y-43233332D02*
X153984819Y-42614285D01*
X153984819Y-42614285D02*
X154365771Y-42947618D01*
X154365771Y-42947618D02*
X154365771Y-42804761D01*
X154365771Y-42804761D02*
X154413390Y-42709523D01*
X154413390Y-42709523D02*
X154461009Y-42661904D01*
X154461009Y-42661904D02*
X154556247Y-42614285D01*
X154556247Y-42614285D02*
X154794342Y-42614285D01*
X154794342Y-42614285D02*
X154889580Y-42661904D01*
X154889580Y-42661904D02*
X154937200Y-42709523D01*
X154937200Y-42709523D02*
X154984819Y-42804761D01*
X154984819Y-42804761D02*
X154984819Y-43090475D01*
X154984819Y-43090475D02*
X154937200Y-43185713D01*
X154937200Y-43185713D02*
X154889580Y-43233332D01*
X154097142Y-53814819D02*
X153763809Y-53338628D01*
X153525714Y-53814819D02*
X153525714Y-52814819D01*
X153525714Y-52814819D02*
X153906666Y-52814819D01*
X153906666Y-52814819D02*
X154001904Y-52862438D01*
X154001904Y-52862438D02*
X154049523Y-52910057D01*
X154049523Y-52910057D02*
X154097142Y-53005295D01*
X154097142Y-53005295D02*
X154097142Y-53148152D01*
X154097142Y-53148152D02*
X154049523Y-53243390D01*
X154049523Y-53243390D02*
X154001904Y-53291009D01*
X154001904Y-53291009D02*
X153906666Y-53338628D01*
X153906666Y-53338628D02*
X153525714Y-53338628D01*
X154478095Y-52910057D02*
X154525714Y-52862438D01*
X154525714Y-52862438D02*
X154620952Y-52814819D01*
X154620952Y-52814819D02*
X154859047Y-52814819D01*
X154859047Y-52814819D02*
X154954285Y-52862438D01*
X154954285Y-52862438D02*
X155001904Y-52910057D01*
X155001904Y-52910057D02*
X155049523Y-53005295D01*
X155049523Y-53005295D02*
X155049523Y-53100533D01*
X155049523Y-53100533D02*
X155001904Y-53243390D01*
X155001904Y-53243390D02*
X154430476Y-53814819D01*
X154430476Y-53814819D02*
X155049523Y-53814819D01*
X155668571Y-52814819D02*
X155763809Y-52814819D01*
X155763809Y-52814819D02*
X155859047Y-52862438D01*
X155859047Y-52862438D02*
X155906666Y-52910057D01*
X155906666Y-52910057D02*
X155954285Y-53005295D01*
X155954285Y-53005295D02*
X156001904Y-53195771D01*
X156001904Y-53195771D02*
X156001904Y-53433866D01*
X156001904Y-53433866D02*
X155954285Y-53624342D01*
X155954285Y-53624342D02*
X155906666Y-53719580D01*
X155906666Y-53719580D02*
X155859047Y-53767200D01*
X155859047Y-53767200D02*
X155763809Y-53814819D01*
X155763809Y-53814819D02*
X155668571Y-53814819D01*
X155668571Y-53814819D02*
X155573333Y-53767200D01*
X155573333Y-53767200D02*
X155525714Y-53719580D01*
X155525714Y-53719580D02*
X155478095Y-53624342D01*
X155478095Y-53624342D02*
X155430476Y-53433866D01*
X155430476Y-53433866D02*
X155430476Y-53195771D01*
X155430476Y-53195771D02*
X155478095Y-53005295D01*
X155478095Y-53005295D02*
X155525714Y-52910057D01*
X155525714Y-52910057D02*
X155573333Y-52862438D01*
X155573333Y-52862438D02*
X155668571Y-52814819D01*
X76738095Y-87504819D02*
X76738095Y-86504819D01*
X76738095Y-86981009D02*
X77309523Y-86981009D01*
X77309523Y-87504819D02*
X77309523Y-86504819D01*
X78214285Y-86838152D02*
X78214285Y-87504819D01*
X77976190Y-86457200D02*
X77738095Y-87171485D01*
X77738095Y-87171485D02*
X78357142Y-87171485D01*
X100895833Y-74379580D02*
X100848214Y-74427200D01*
X100848214Y-74427200D02*
X100705357Y-74474819D01*
X100705357Y-74474819D02*
X100610119Y-74474819D01*
X100610119Y-74474819D02*
X100467262Y-74427200D01*
X100467262Y-74427200D02*
X100372024Y-74331961D01*
X100372024Y-74331961D02*
X100324405Y-74236723D01*
X100324405Y-74236723D02*
X100276786Y-74046247D01*
X100276786Y-74046247D02*
X100276786Y-73903390D01*
X100276786Y-73903390D02*
X100324405Y-73712914D01*
X100324405Y-73712914D02*
X100372024Y-73617676D01*
X100372024Y-73617676D02*
X100467262Y-73522438D01*
X100467262Y-73522438D02*
X100610119Y-73474819D01*
X100610119Y-73474819D02*
X100705357Y-73474819D01*
X100705357Y-73474819D02*
X100848214Y-73522438D01*
X100848214Y-73522438D02*
X100895833Y-73570057D01*
X101800595Y-73474819D02*
X101324405Y-73474819D01*
X101324405Y-73474819D02*
X101276786Y-73951009D01*
X101276786Y-73951009D02*
X101324405Y-73903390D01*
X101324405Y-73903390D02*
X101419643Y-73855771D01*
X101419643Y-73855771D02*
X101657738Y-73855771D01*
X101657738Y-73855771D02*
X101752976Y-73903390D01*
X101752976Y-73903390D02*
X101800595Y-73951009D01*
X101800595Y-73951009D02*
X101848214Y-74046247D01*
X101848214Y-74046247D02*
X101848214Y-74284342D01*
X101848214Y-74284342D02*
X101800595Y-74379580D01*
X101800595Y-74379580D02*
X101752976Y-74427200D01*
X101752976Y-74427200D02*
X101657738Y-74474819D01*
X101657738Y-74474819D02*
X101419643Y-74474819D01*
X101419643Y-74474819D02*
X101324405Y-74427200D01*
X101324405Y-74427200D02*
X101276786Y-74379580D01*
X126954819Y-80142857D02*
X126478628Y-80476190D01*
X126954819Y-80714285D02*
X125954819Y-80714285D01*
X125954819Y-80714285D02*
X125954819Y-80333333D01*
X125954819Y-80333333D02*
X126002438Y-80238095D01*
X126002438Y-80238095D02*
X126050057Y-80190476D01*
X126050057Y-80190476D02*
X126145295Y-80142857D01*
X126145295Y-80142857D02*
X126288152Y-80142857D01*
X126288152Y-80142857D02*
X126383390Y-80190476D01*
X126383390Y-80190476D02*
X126431009Y-80238095D01*
X126431009Y-80238095D02*
X126478628Y-80333333D01*
X126478628Y-80333333D02*
X126478628Y-80714285D01*
X126954819Y-79190476D02*
X126954819Y-79761904D01*
X126954819Y-79476190D02*
X125954819Y-79476190D01*
X125954819Y-79476190D02*
X126097676Y-79571428D01*
X126097676Y-79571428D02*
X126192914Y-79666666D01*
X126192914Y-79666666D02*
X126240533Y-79761904D01*
X125954819Y-78571428D02*
X125954819Y-78476190D01*
X125954819Y-78476190D02*
X126002438Y-78380952D01*
X126002438Y-78380952D02*
X126050057Y-78333333D01*
X126050057Y-78333333D02*
X126145295Y-78285714D01*
X126145295Y-78285714D02*
X126335771Y-78238095D01*
X126335771Y-78238095D02*
X126573866Y-78238095D01*
X126573866Y-78238095D02*
X126764342Y-78285714D01*
X126764342Y-78285714D02*
X126859580Y-78333333D01*
X126859580Y-78333333D02*
X126907200Y-78380952D01*
X126907200Y-78380952D02*
X126954819Y-78476190D01*
X126954819Y-78476190D02*
X126954819Y-78571428D01*
X126954819Y-78571428D02*
X126907200Y-78666666D01*
X126907200Y-78666666D02*
X126859580Y-78714285D01*
X126859580Y-78714285D02*
X126764342Y-78761904D01*
X126764342Y-78761904D02*
X126573866Y-78809523D01*
X126573866Y-78809523D02*
X126335771Y-78809523D01*
X126335771Y-78809523D02*
X126145295Y-78761904D01*
X126145295Y-78761904D02*
X126050057Y-78714285D01*
X126050057Y-78714285D02*
X126002438Y-78666666D01*
X126002438Y-78666666D02*
X125954819Y-78571428D01*
X147144819Y-30536666D02*
X146668628Y-30869999D01*
X147144819Y-31108094D02*
X146144819Y-31108094D01*
X146144819Y-31108094D02*
X146144819Y-30727142D01*
X146144819Y-30727142D02*
X146192438Y-30631904D01*
X146192438Y-30631904D02*
X146240057Y-30584285D01*
X146240057Y-30584285D02*
X146335295Y-30536666D01*
X146335295Y-30536666D02*
X146478152Y-30536666D01*
X146478152Y-30536666D02*
X146573390Y-30584285D01*
X146573390Y-30584285D02*
X146621009Y-30631904D01*
X146621009Y-30631904D02*
X146668628Y-30727142D01*
X146668628Y-30727142D02*
X146668628Y-31108094D01*
X146144819Y-30203332D02*
X146144819Y-29536666D01*
X146144819Y-29536666D02*
X147144819Y-29965237D01*
X101333333Y-68454819D02*
X101000000Y-67978628D01*
X100761905Y-68454819D02*
X100761905Y-67454819D01*
X100761905Y-67454819D02*
X101142857Y-67454819D01*
X101142857Y-67454819D02*
X101238095Y-67502438D01*
X101238095Y-67502438D02*
X101285714Y-67550057D01*
X101285714Y-67550057D02*
X101333333Y-67645295D01*
X101333333Y-67645295D02*
X101333333Y-67788152D01*
X101333333Y-67788152D02*
X101285714Y-67883390D01*
X101285714Y-67883390D02*
X101238095Y-67931009D01*
X101238095Y-67931009D02*
X101142857Y-67978628D01*
X101142857Y-67978628D02*
X100761905Y-67978628D01*
X101809524Y-68454819D02*
X102000000Y-68454819D01*
X102000000Y-68454819D02*
X102095238Y-68407200D01*
X102095238Y-68407200D02*
X102142857Y-68359580D01*
X102142857Y-68359580D02*
X102238095Y-68216723D01*
X102238095Y-68216723D02*
X102285714Y-68026247D01*
X102285714Y-68026247D02*
X102285714Y-67645295D01*
X102285714Y-67645295D02*
X102238095Y-67550057D01*
X102238095Y-67550057D02*
X102190476Y-67502438D01*
X102190476Y-67502438D02*
X102095238Y-67454819D01*
X102095238Y-67454819D02*
X101904762Y-67454819D01*
X101904762Y-67454819D02*
X101809524Y-67502438D01*
X101809524Y-67502438D02*
X101761905Y-67550057D01*
X101761905Y-67550057D02*
X101714286Y-67645295D01*
X101714286Y-67645295D02*
X101714286Y-67883390D01*
X101714286Y-67883390D02*
X101761905Y-67978628D01*
X101761905Y-67978628D02*
X101809524Y-68026247D01*
X101809524Y-68026247D02*
X101904762Y-68073866D01*
X101904762Y-68073866D02*
X102095238Y-68073866D01*
X102095238Y-68073866D02*
X102190476Y-68026247D01*
X102190476Y-68026247D02*
X102238095Y-67978628D01*
X102238095Y-67978628D02*
X102285714Y-67883390D01*
X139644819Y-30536666D02*
X139168628Y-30869999D01*
X139644819Y-31108094D02*
X138644819Y-31108094D01*
X138644819Y-31108094D02*
X138644819Y-30727142D01*
X138644819Y-30727142D02*
X138692438Y-30631904D01*
X138692438Y-30631904D02*
X138740057Y-30584285D01*
X138740057Y-30584285D02*
X138835295Y-30536666D01*
X138835295Y-30536666D02*
X138978152Y-30536666D01*
X138978152Y-30536666D02*
X139073390Y-30584285D01*
X139073390Y-30584285D02*
X139121009Y-30631904D01*
X139121009Y-30631904D02*
X139168628Y-30727142D01*
X139168628Y-30727142D02*
X139168628Y-31108094D01*
X139073390Y-29965237D02*
X139025771Y-30060475D01*
X139025771Y-30060475D02*
X138978152Y-30108094D01*
X138978152Y-30108094D02*
X138882914Y-30155713D01*
X138882914Y-30155713D02*
X138835295Y-30155713D01*
X138835295Y-30155713D02*
X138740057Y-30108094D01*
X138740057Y-30108094D02*
X138692438Y-30060475D01*
X138692438Y-30060475D02*
X138644819Y-29965237D01*
X138644819Y-29965237D02*
X138644819Y-29774761D01*
X138644819Y-29774761D02*
X138692438Y-29679523D01*
X138692438Y-29679523D02*
X138740057Y-29631904D01*
X138740057Y-29631904D02*
X138835295Y-29584285D01*
X138835295Y-29584285D02*
X138882914Y-29584285D01*
X138882914Y-29584285D02*
X138978152Y-29631904D01*
X138978152Y-29631904D02*
X139025771Y-29679523D01*
X139025771Y-29679523D02*
X139073390Y-29774761D01*
X139073390Y-29774761D02*
X139073390Y-29965237D01*
X139073390Y-29965237D02*
X139121009Y-30060475D01*
X139121009Y-30060475D02*
X139168628Y-30108094D01*
X139168628Y-30108094D02*
X139263866Y-30155713D01*
X139263866Y-30155713D02*
X139454342Y-30155713D01*
X139454342Y-30155713D02*
X139549580Y-30108094D01*
X139549580Y-30108094D02*
X139597200Y-30060475D01*
X139597200Y-30060475D02*
X139644819Y-29965237D01*
X139644819Y-29965237D02*
X139644819Y-29774761D01*
X139644819Y-29774761D02*
X139597200Y-29679523D01*
X139597200Y-29679523D02*
X139549580Y-29631904D01*
X139549580Y-29631904D02*
X139454342Y-29584285D01*
X139454342Y-29584285D02*
X139263866Y-29584285D01*
X139263866Y-29584285D02*
X139168628Y-29631904D01*
X139168628Y-29631904D02*
X139121009Y-29679523D01*
X139121009Y-29679523D02*
X139073390Y-29774761D01*
X75666667Y-50157200D02*
X75809524Y-50204819D01*
X75809524Y-50204819D02*
X76047619Y-50204819D01*
X76047619Y-50204819D02*
X76142857Y-50157200D01*
X76142857Y-50157200D02*
X76190476Y-50109580D01*
X76190476Y-50109580D02*
X76238095Y-50014342D01*
X76238095Y-50014342D02*
X76238095Y-49919104D01*
X76238095Y-49919104D02*
X76190476Y-49823866D01*
X76190476Y-49823866D02*
X76142857Y-49776247D01*
X76142857Y-49776247D02*
X76047619Y-49728628D01*
X76047619Y-49728628D02*
X75857143Y-49681009D01*
X75857143Y-49681009D02*
X75761905Y-49633390D01*
X75761905Y-49633390D02*
X75714286Y-49585771D01*
X75714286Y-49585771D02*
X75666667Y-49490533D01*
X75666667Y-49490533D02*
X75666667Y-49395295D01*
X75666667Y-49395295D02*
X75714286Y-49300057D01*
X75714286Y-49300057D02*
X75761905Y-49252438D01*
X75761905Y-49252438D02*
X75857143Y-49204819D01*
X75857143Y-49204819D02*
X76095238Y-49204819D01*
X76095238Y-49204819D02*
X76238095Y-49252438D01*
X76571429Y-49204819D02*
X76809524Y-50204819D01*
X76809524Y-50204819D02*
X77000000Y-49490533D01*
X77000000Y-49490533D02*
X77190476Y-50204819D01*
X77190476Y-50204819D02*
X77428572Y-49204819D01*
X78333333Y-50204819D02*
X77761905Y-50204819D01*
X78047619Y-50204819D02*
X78047619Y-49204819D01*
X78047619Y-49204819D02*
X77952381Y-49347676D01*
X77952381Y-49347676D02*
X77857143Y-49442914D01*
X77857143Y-49442914D02*
X77761905Y-49490533D01*
X153997142Y-51314819D02*
X153663809Y-50838628D01*
X153425714Y-51314819D02*
X153425714Y-50314819D01*
X153425714Y-50314819D02*
X153806666Y-50314819D01*
X153806666Y-50314819D02*
X153901904Y-50362438D01*
X153901904Y-50362438D02*
X153949523Y-50410057D01*
X153949523Y-50410057D02*
X153997142Y-50505295D01*
X153997142Y-50505295D02*
X153997142Y-50648152D01*
X153997142Y-50648152D02*
X153949523Y-50743390D01*
X153949523Y-50743390D02*
X153901904Y-50791009D01*
X153901904Y-50791009D02*
X153806666Y-50838628D01*
X153806666Y-50838628D02*
X153425714Y-50838628D01*
X154949523Y-51314819D02*
X154378095Y-51314819D01*
X154663809Y-51314819D02*
X154663809Y-50314819D01*
X154663809Y-50314819D02*
X154568571Y-50457676D01*
X154568571Y-50457676D02*
X154473333Y-50552914D01*
X154473333Y-50552914D02*
X154378095Y-50600533D01*
X155425714Y-51314819D02*
X155616190Y-51314819D01*
X155616190Y-51314819D02*
X155711428Y-51267200D01*
X155711428Y-51267200D02*
X155759047Y-51219580D01*
X155759047Y-51219580D02*
X155854285Y-51076723D01*
X155854285Y-51076723D02*
X155901904Y-50886247D01*
X155901904Y-50886247D02*
X155901904Y-50505295D01*
X155901904Y-50505295D02*
X155854285Y-50410057D01*
X155854285Y-50410057D02*
X155806666Y-50362438D01*
X155806666Y-50362438D02*
X155711428Y-50314819D01*
X155711428Y-50314819D02*
X155520952Y-50314819D01*
X155520952Y-50314819D02*
X155425714Y-50362438D01*
X155425714Y-50362438D02*
X155378095Y-50410057D01*
X155378095Y-50410057D02*
X155330476Y-50505295D01*
X155330476Y-50505295D02*
X155330476Y-50743390D01*
X155330476Y-50743390D02*
X155378095Y-50838628D01*
X155378095Y-50838628D02*
X155425714Y-50886247D01*
X155425714Y-50886247D02*
X155520952Y-50933866D01*
X155520952Y-50933866D02*
X155711428Y-50933866D01*
X155711428Y-50933866D02*
X155806666Y-50886247D01*
X155806666Y-50886247D02*
X155854285Y-50838628D01*
X155854285Y-50838628D02*
X155901904Y-50743390D01*
X104998095Y-60394819D02*
X104998095Y-61204342D01*
X104998095Y-61204342D02*
X105045714Y-61299580D01*
X105045714Y-61299580D02*
X105093333Y-61347200D01*
X105093333Y-61347200D02*
X105188571Y-61394819D01*
X105188571Y-61394819D02*
X105379047Y-61394819D01*
X105379047Y-61394819D02*
X105474285Y-61347200D01*
X105474285Y-61347200D02*
X105521904Y-61299580D01*
X105521904Y-61299580D02*
X105569523Y-61204342D01*
X105569523Y-61204342D02*
X105569523Y-60394819D01*
X105950476Y-60394819D02*
X106569523Y-60394819D01*
X106569523Y-60394819D02*
X106236190Y-60775771D01*
X106236190Y-60775771D02*
X106379047Y-60775771D01*
X106379047Y-60775771D02*
X106474285Y-60823390D01*
X106474285Y-60823390D02*
X106521904Y-60871009D01*
X106521904Y-60871009D02*
X106569523Y-60966247D01*
X106569523Y-60966247D02*
X106569523Y-61204342D01*
X106569523Y-61204342D02*
X106521904Y-61299580D01*
X106521904Y-61299580D02*
X106474285Y-61347200D01*
X106474285Y-61347200D02*
X106379047Y-61394819D01*
X106379047Y-61394819D02*
X106093333Y-61394819D01*
X106093333Y-61394819D02*
X105998095Y-61347200D01*
X105998095Y-61347200D02*
X105950476Y-61299580D01*
X167310595Y-52278319D02*
X167310595Y-53087842D01*
X167310595Y-53087842D02*
X167358214Y-53183080D01*
X167358214Y-53183080D02*
X167405833Y-53230700D01*
X167405833Y-53230700D02*
X167501071Y-53278319D01*
X167501071Y-53278319D02*
X167691547Y-53278319D01*
X167691547Y-53278319D02*
X167786785Y-53230700D01*
X167786785Y-53230700D02*
X167834404Y-53183080D01*
X167834404Y-53183080D02*
X167882023Y-53087842D01*
X167882023Y-53087842D02*
X167882023Y-52278319D01*
X168262976Y-52278319D02*
X168929642Y-52278319D01*
X168929642Y-52278319D02*
X168501071Y-53278319D01*
X154097142Y-61314819D02*
X153763809Y-60838628D01*
X153525714Y-61314819D02*
X153525714Y-60314819D01*
X153525714Y-60314819D02*
X153906666Y-60314819D01*
X153906666Y-60314819D02*
X154001904Y-60362438D01*
X154001904Y-60362438D02*
X154049523Y-60410057D01*
X154049523Y-60410057D02*
X154097142Y-60505295D01*
X154097142Y-60505295D02*
X154097142Y-60648152D01*
X154097142Y-60648152D02*
X154049523Y-60743390D01*
X154049523Y-60743390D02*
X154001904Y-60791009D01*
X154001904Y-60791009D02*
X153906666Y-60838628D01*
X153906666Y-60838628D02*
X153525714Y-60838628D01*
X155049523Y-61314819D02*
X154478095Y-61314819D01*
X154763809Y-61314819D02*
X154763809Y-60314819D01*
X154763809Y-60314819D02*
X154668571Y-60457676D01*
X154668571Y-60457676D02*
X154573333Y-60552914D01*
X154573333Y-60552914D02*
X154478095Y-60600533D01*
X155906666Y-60314819D02*
X155716190Y-60314819D01*
X155716190Y-60314819D02*
X155620952Y-60362438D01*
X155620952Y-60362438D02*
X155573333Y-60410057D01*
X155573333Y-60410057D02*
X155478095Y-60552914D01*
X155478095Y-60552914D02*
X155430476Y-60743390D01*
X155430476Y-60743390D02*
X155430476Y-61124342D01*
X155430476Y-61124342D02*
X155478095Y-61219580D01*
X155478095Y-61219580D02*
X155525714Y-61267200D01*
X155525714Y-61267200D02*
X155620952Y-61314819D01*
X155620952Y-61314819D02*
X155811428Y-61314819D01*
X155811428Y-61314819D02*
X155906666Y-61267200D01*
X155906666Y-61267200D02*
X155954285Y-61219580D01*
X155954285Y-61219580D02*
X156001904Y-61124342D01*
X156001904Y-61124342D02*
X156001904Y-60886247D01*
X156001904Y-60886247D02*
X155954285Y-60791009D01*
X155954285Y-60791009D02*
X155906666Y-60743390D01*
X155906666Y-60743390D02*
X155811428Y-60695771D01*
X155811428Y-60695771D02*
X155620952Y-60695771D01*
X155620952Y-60695771D02*
X155525714Y-60743390D01*
X155525714Y-60743390D02*
X155478095Y-60791009D01*
X155478095Y-60791009D02*
X155430476Y-60886247D01*
X154097142Y-64314819D02*
X153763809Y-63838628D01*
X153525714Y-64314819D02*
X153525714Y-63314819D01*
X153525714Y-63314819D02*
X153906666Y-63314819D01*
X153906666Y-63314819D02*
X154001904Y-63362438D01*
X154001904Y-63362438D02*
X154049523Y-63410057D01*
X154049523Y-63410057D02*
X154097142Y-63505295D01*
X154097142Y-63505295D02*
X154097142Y-63648152D01*
X154097142Y-63648152D02*
X154049523Y-63743390D01*
X154049523Y-63743390D02*
X154001904Y-63791009D01*
X154001904Y-63791009D02*
X153906666Y-63838628D01*
X153906666Y-63838628D02*
X153525714Y-63838628D01*
X155049523Y-64314819D02*
X154478095Y-64314819D01*
X154763809Y-64314819D02*
X154763809Y-63314819D01*
X154763809Y-63314819D02*
X154668571Y-63457676D01*
X154668571Y-63457676D02*
X154573333Y-63552914D01*
X154573333Y-63552914D02*
X154478095Y-63600533D01*
X155382857Y-63314819D02*
X156049523Y-63314819D01*
X156049523Y-63314819D02*
X155620952Y-64314819D01*
X115378221Y-23774580D02*
X115330602Y-23822200D01*
X115330602Y-23822200D02*
X115187745Y-23869819D01*
X115187745Y-23869819D02*
X115092507Y-23869819D01*
X115092507Y-23869819D02*
X114949650Y-23822200D01*
X114949650Y-23822200D02*
X114854412Y-23726961D01*
X114854412Y-23726961D02*
X114806793Y-23631723D01*
X114806793Y-23631723D02*
X114759174Y-23441247D01*
X114759174Y-23441247D02*
X114759174Y-23298390D01*
X114759174Y-23298390D02*
X114806793Y-23107914D01*
X114806793Y-23107914D02*
X114854412Y-23012676D01*
X114854412Y-23012676D02*
X114949650Y-22917438D01*
X114949650Y-22917438D02*
X115092507Y-22869819D01*
X115092507Y-22869819D02*
X115187745Y-22869819D01*
X115187745Y-22869819D02*
X115330602Y-22917438D01*
X115330602Y-22917438D02*
X115378221Y-22965057D01*
X116330602Y-23869819D02*
X115759174Y-23869819D01*
X116044888Y-23869819D02*
X116044888Y-22869819D01*
X116044888Y-22869819D02*
X115949650Y-23012676D01*
X115949650Y-23012676D02*
X115854412Y-23107914D01*
X115854412Y-23107914D02*
X115759174Y-23155533D01*
X101805595Y-73484819D02*
X101805595Y-74294342D01*
X101805595Y-74294342D02*
X101853214Y-74389580D01*
X101853214Y-74389580D02*
X101900833Y-74437200D01*
X101900833Y-74437200D02*
X101996071Y-74484819D01*
X101996071Y-74484819D02*
X102186547Y-74484819D01*
X102186547Y-74484819D02*
X102281785Y-74437200D01*
X102281785Y-74437200D02*
X102329404Y-74389580D01*
X102329404Y-74389580D02*
X102377023Y-74294342D01*
X102377023Y-74294342D02*
X102377023Y-73484819D01*
X102805595Y-73580057D02*
X102853214Y-73532438D01*
X102853214Y-73532438D02*
X102948452Y-73484819D01*
X102948452Y-73484819D02*
X103186547Y-73484819D01*
X103186547Y-73484819D02*
X103281785Y-73532438D01*
X103281785Y-73532438D02*
X103329404Y-73580057D01*
X103329404Y-73580057D02*
X103377023Y-73675295D01*
X103377023Y-73675295D02*
X103377023Y-73770533D01*
X103377023Y-73770533D02*
X103329404Y-73913390D01*
X103329404Y-73913390D02*
X102757976Y-74484819D01*
X102757976Y-74484819D02*
X103377023Y-74484819D01*
X131954819Y-78292857D02*
X131478628Y-78626190D01*
X131954819Y-78864285D02*
X130954819Y-78864285D01*
X130954819Y-78864285D02*
X130954819Y-78483333D01*
X130954819Y-78483333D02*
X131002438Y-78388095D01*
X131002438Y-78388095D02*
X131050057Y-78340476D01*
X131050057Y-78340476D02*
X131145295Y-78292857D01*
X131145295Y-78292857D02*
X131288152Y-78292857D01*
X131288152Y-78292857D02*
X131383390Y-78340476D01*
X131383390Y-78340476D02*
X131431009Y-78388095D01*
X131431009Y-78388095D02*
X131478628Y-78483333D01*
X131478628Y-78483333D02*
X131478628Y-78864285D01*
X131954819Y-77340476D02*
X131954819Y-77911904D01*
X131954819Y-77626190D02*
X130954819Y-77626190D01*
X130954819Y-77626190D02*
X131097676Y-77721428D01*
X131097676Y-77721428D02*
X131192914Y-77816666D01*
X131192914Y-77816666D02*
X131240533Y-77911904D01*
X130954819Y-77007142D02*
X130954819Y-76388095D01*
X130954819Y-76388095D02*
X131335771Y-76721428D01*
X131335771Y-76721428D02*
X131335771Y-76578571D01*
X131335771Y-76578571D02*
X131383390Y-76483333D01*
X131383390Y-76483333D02*
X131431009Y-76435714D01*
X131431009Y-76435714D02*
X131526247Y-76388095D01*
X131526247Y-76388095D02*
X131764342Y-76388095D01*
X131764342Y-76388095D02*
X131859580Y-76435714D01*
X131859580Y-76435714D02*
X131907200Y-76483333D01*
X131907200Y-76483333D02*
X131954819Y-76578571D01*
X131954819Y-76578571D02*
X131954819Y-76864285D01*
X131954819Y-76864285D02*
X131907200Y-76959523D01*
X131907200Y-76959523D02*
X131859580Y-77007142D01*
X108833333Y-41879580D02*
X108785714Y-41927200D01*
X108785714Y-41927200D02*
X108642857Y-41974819D01*
X108642857Y-41974819D02*
X108547619Y-41974819D01*
X108547619Y-41974819D02*
X108404762Y-41927200D01*
X108404762Y-41927200D02*
X108309524Y-41831961D01*
X108309524Y-41831961D02*
X108261905Y-41736723D01*
X108261905Y-41736723D02*
X108214286Y-41546247D01*
X108214286Y-41546247D02*
X108214286Y-41403390D01*
X108214286Y-41403390D02*
X108261905Y-41212914D01*
X108261905Y-41212914D02*
X108309524Y-41117676D01*
X108309524Y-41117676D02*
X108404762Y-41022438D01*
X108404762Y-41022438D02*
X108547619Y-40974819D01*
X108547619Y-40974819D02*
X108642857Y-40974819D01*
X108642857Y-40974819D02*
X108785714Y-41022438D01*
X108785714Y-41022438D02*
X108833333Y-41070057D01*
X109166667Y-40974819D02*
X109785714Y-40974819D01*
X109785714Y-40974819D02*
X109452381Y-41355771D01*
X109452381Y-41355771D02*
X109595238Y-41355771D01*
X109595238Y-41355771D02*
X109690476Y-41403390D01*
X109690476Y-41403390D02*
X109738095Y-41451009D01*
X109738095Y-41451009D02*
X109785714Y-41546247D01*
X109785714Y-41546247D02*
X109785714Y-41784342D01*
X109785714Y-41784342D02*
X109738095Y-41879580D01*
X109738095Y-41879580D02*
X109690476Y-41927200D01*
X109690476Y-41927200D02*
X109595238Y-41974819D01*
X109595238Y-41974819D02*
X109309524Y-41974819D01*
X109309524Y-41974819D02*
X109214286Y-41927200D01*
X109214286Y-41927200D02*
X109166667Y-41879580D01*
X147514819Y-44138094D02*
X146514819Y-44138094D01*
X146514819Y-44138094D02*
X146514819Y-43899999D01*
X146514819Y-43899999D02*
X146562438Y-43757142D01*
X146562438Y-43757142D02*
X146657676Y-43661904D01*
X146657676Y-43661904D02*
X146752914Y-43614285D01*
X146752914Y-43614285D02*
X146943390Y-43566666D01*
X146943390Y-43566666D02*
X147086247Y-43566666D01*
X147086247Y-43566666D02*
X147276723Y-43614285D01*
X147276723Y-43614285D02*
X147371961Y-43661904D01*
X147371961Y-43661904D02*
X147467200Y-43757142D01*
X147467200Y-43757142D02*
X147514819Y-43899999D01*
X147514819Y-43899999D02*
X147514819Y-44138094D01*
X146848152Y-42709523D02*
X147514819Y-42709523D01*
X146467200Y-42947618D02*
X147181485Y-43185713D01*
X147181485Y-43185713D02*
X147181485Y-42566666D01*
X136624819Y-79192857D02*
X136148628Y-79526190D01*
X136624819Y-79764285D02*
X135624819Y-79764285D01*
X135624819Y-79764285D02*
X135624819Y-79383333D01*
X135624819Y-79383333D02*
X135672438Y-79288095D01*
X135672438Y-79288095D02*
X135720057Y-79240476D01*
X135720057Y-79240476D02*
X135815295Y-79192857D01*
X135815295Y-79192857D02*
X135958152Y-79192857D01*
X135958152Y-79192857D02*
X136053390Y-79240476D01*
X136053390Y-79240476D02*
X136101009Y-79288095D01*
X136101009Y-79288095D02*
X136148628Y-79383333D01*
X136148628Y-79383333D02*
X136148628Y-79764285D01*
X136624819Y-78240476D02*
X136624819Y-78811904D01*
X136624819Y-78526190D02*
X135624819Y-78526190D01*
X135624819Y-78526190D02*
X135767676Y-78621428D01*
X135767676Y-78621428D02*
X135862914Y-78716666D01*
X135862914Y-78716666D02*
X135910533Y-78811904D01*
X135720057Y-77859523D02*
X135672438Y-77811904D01*
X135672438Y-77811904D02*
X135624819Y-77716666D01*
X135624819Y-77716666D02*
X135624819Y-77478571D01*
X135624819Y-77478571D02*
X135672438Y-77383333D01*
X135672438Y-77383333D02*
X135720057Y-77335714D01*
X135720057Y-77335714D02*
X135815295Y-77288095D01*
X135815295Y-77288095D02*
X135910533Y-77288095D01*
X135910533Y-77288095D02*
X136053390Y-77335714D01*
X136053390Y-77335714D02*
X136624819Y-77907142D01*
X136624819Y-77907142D02*
X136624819Y-77288095D01*
X123604819Y-42331666D02*
X123604819Y-42807856D01*
X123604819Y-42807856D02*
X122604819Y-42807856D01*
X123604819Y-41474523D02*
X123604819Y-42045951D01*
X123604819Y-41760237D02*
X122604819Y-41760237D01*
X122604819Y-41760237D02*
X122747676Y-41855475D01*
X122747676Y-41855475D02*
X122842914Y-41950713D01*
X122842914Y-41950713D02*
X122890533Y-42045951D01*
X154097142Y-66814819D02*
X153763809Y-66338628D01*
X153525714Y-66814819D02*
X153525714Y-65814819D01*
X153525714Y-65814819D02*
X153906666Y-65814819D01*
X153906666Y-65814819D02*
X154001904Y-65862438D01*
X154001904Y-65862438D02*
X154049523Y-65910057D01*
X154049523Y-65910057D02*
X154097142Y-66005295D01*
X154097142Y-66005295D02*
X154097142Y-66148152D01*
X154097142Y-66148152D02*
X154049523Y-66243390D01*
X154049523Y-66243390D02*
X154001904Y-66291009D01*
X154001904Y-66291009D02*
X153906666Y-66338628D01*
X153906666Y-66338628D02*
X153525714Y-66338628D01*
X155049523Y-66814819D02*
X154478095Y-66814819D01*
X154763809Y-66814819D02*
X154763809Y-65814819D01*
X154763809Y-65814819D02*
X154668571Y-65957676D01*
X154668571Y-65957676D02*
X154573333Y-66052914D01*
X154573333Y-66052914D02*
X154478095Y-66100533D01*
X155620952Y-66243390D02*
X155525714Y-66195771D01*
X155525714Y-66195771D02*
X155478095Y-66148152D01*
X155478095Y-66148152D02*
X155430476Y-66052914D01*
X155430476Y-66052914D02*
X155430476Y-66005295D01*
X155430476Y-66005295D02*
X155478095Y-65910057D01*
X155478095Y-65910057D02*
X155525714Y-65862438D01*
X155525714Y-65862438D02*
X155620952Y-65814819D01*
X155620952Y-65814819D02*
X155811428Y-65814819D01*
X155811428Y-65814819D02*
X155906666Y-65862438D01*
X155906666Y-65862438D02*
X155954285Y-65910057D01*
X155954285Y-65910057D02*
X156001904Y-66005295D01*
X156001904Y-66005295D02*
X156001904Y-66052914D01*
X156001904Y-66052914D02*
X155954285Y-66148152D01*
X155954285Y-66148152D02*
X155906666Y-66195771D01*
X155906666Y-66195771D02*
X155811428Y-66243390D01*
X155811428Y-66243390D02*
X155620952Y-66243390D01*
X155620952Y-66243390D02*
X155525714Y-66291009D01*
X155525714Y-66291009D02*
X155478095Y-66338628D01*
X155478095Y-66338628D02*
X155430476Y-66433866D01*
X155430476Y-66433866D02*
X155430476Y-66624342D01*
X155430476Y-66624342D02*
X155478095Y-66719580D01*
X155478095Y-66719580D02*
X155525714Y-66767200D01*
X155525714Y-66767200D02*
X155620952Y-66814819D01*
X155620952Y-66814819D02*
X155811428Y-66814819D01*
X155811428Y-66814819D02*
X155906666Y-66767200D01*
X155906666Y-66767200D02*
X155954285Y-66719580D01*
X155954285Y-66719580D02*
X156001904Y-66624342D01*
X156001904Y-66624342D02*
X156001904Y-66433866D01*
X156001904Y-66433866D02*
X155954285Y-66338628D01*
X155954285Y-66338628D02*
X155906666Y-66291009D01*
X155906666Y-66291009D02*
X155811428Y-66243390D01*
X154097142Y-56314819D02*
X153763809Y-55838628D01*
X153525714Y-56314819D02*
X153525714Y-55314819D01*
X153525714Y-55314819D02*
X153906666Y-55314819D01*
X153906666Y-55314819D02*
X154001904Y-55362438D01*
X154001904Y-55362438D02*
X154049523Y-55410057D01*
X154049523Y-55410057D02*
X154097142Y-55505295D01*
X154097142Y-55505295D02*
X154097142Y-55648152D01*
X154097142Y-55648152D02*
X154049523Y-55743390D01*
X154049523Y-55743390D02*
X154001904Y-55791009D01*
X154001904Y-55791009D02*
X153906666Y-55838628D01*
X153906666Y-55838628D02*
X153525714Y-55838628D01*
X155049523Y-56314819D02*
X154478095Y-56314819D01*
X154763809Y-56314819D02*
X154763809Y-55314819D01*
X154763809Y-55314819D02*
X154668571Y-55457676D01*
X154668571Y-55457676D02*
X154573333Y-55552914D01*
X154573333Y-55552914D02*
X154478095Y-55600533D01*
X155906666Y-55648152D02*
X155906666Y-56314819D01*
X155668571Y-55267200D02*
X155430476Y-55981485D01*
X155430476Y-55981485D02*
X156049523Y-55981485D01*
X84083333Y-55124819D02*
X83750000Y-54648628D01*
X83511905Y-55124819D02*
X83511905Y-54124819D01*
X83511905Y-54124819D02*
X83892857Y-54124819D01*
X83892857Y-54124819D02*
X83988095Y-54172438D01*
X83988095Y-54172438D02*
X84035714Y-54220057D01*
X84035714Y-54220057D02*
X84083333Y-54315295D01*
X84083333Y-54315295D02*
X84083333Y-54458152D01*
X84083333Y-54458152D02*
X84035714Y-54553390D01*
X84035714Y-54553390D02*
X83988095Y-54601009D01*
X83988095Y-54601009D02*
X83892857Y-54648628D01*
X83892857Y-54648628D02*
X83511905Y-54648628D01*
X84940476Y-54458152D02*
X84940476Y-55124819D01*
X84702381Y-54077200D02*
X84464286Y-54791485D01*
X84464286Y-54791485D02*
X85083333Y-54791485D01*
X162454819Y-44138094D02*
X161454819Y-44138094D01*
X161454819Y-44138094D02*
X161454819Y-43899999D01*
X161454819Y-43899999D02*
X161502438Y-43757142D01*
X161502438Y-43757142D02*
X161597676Y-43661904D01*
X161597676Y-43661904D02*
X161692914Y-43614285D01*
X161692914Y-43614285D02*
X161883390Y-43566666D01*
X161883390Y-43566666D02*
X162026247Y-43566666D01*
X162026247Y-43566666D02*
X162216723Y-43614285D01*
X162216723Y-43614285D02*
X162311961Y-43661904D01*
X162311961Y-43661904D02*
X162407200Y-43757142D01*
X162407200Y-43757142D02*
X162454819Y-43899999D01*
X162454819Y-43899999D02*
X162454819Y-44138094D01*
X161550057Y-43185713D02*
X161502438Y-43138094D01*
X161502438Y-43138094D02*
X161454819Y-43042856D01*
X161454819Y-43042856D02*
X161454819Y-42804761D01*
X161454819Y-42804761D02*
X161502438Y-42709523D01*
X161502438Y-42709523D02*
X161550057Y-42661904D01*
X161550057Y-42661904D02*
X161645295Y-42614285D01*
X161645295Y-42614285D02*
X161740533Y-42614285D01*
X161740533Y-42614285D02*
X161883390Y-42661904D01*
X161883390Y-42661904D02*
X162454819Y-43233332D01*
X162454819Y-43233332D02*
X162454819Y-42614285D01*
X132238095Y-48234819D02*
X132238095Y-49044342D01*
X132238095Y-49044342D02*
X132285714Y-49139580D01*
X132285714Y-49139580D02*
X132333333Y-49187200D01*
X132333333Y-49187200D02*
X132428571Y-49234819D01*
X132428571Y-49234819D02*
X132619047Y-49234819D01*
X132619047Y-49234819D02*
X132714285Y-49187200D01*
X132714285Y-49187200D02*
X132761904Y-49139580D01*
X132761904Y-49139580D02*
X132809523Y-49044342D01*
X132809523Y-49044342D02*
X132809523Y-48234819D01*
X133761904Y-48234819D02*
X133285714Y-48234819D01*
X133285714Y-48234819D02*
X133238095Y-48711009D01*
X133238095Y-48711009D02*
X133285714Y-48663390D01*
X133285714Y-48663390D02*
X133380952Y-48615771D01*
X133380952Y-48615771D02*
X133619047Y-48615771D01*
X133619047Y-48615771D02*
X133714285Y-48663390D01*
X133714285Y-48663390D02*
X133761904Y-48711009D01*
X133761904Y-48711009D02*
X133809523Y-48806247D01*
X133809523Y-48806247D02*
X133809523Y-49044342D01*
X133809523Y-49044342D02*
X133761904Y-49139580D01*
X133761904Y-49139580D02*
X133714285Y-49187200D01*
X133714285Y-49187200D02*
X133619047Y-49234819D01*
X133619047Y-49234819D02*
X133380952Y-49234819D01*
X133380952Y-49234819D02*
X133285714Y-49187200D01*
X133285714Y-49187200D02*
X133238095Y-49139580D01*
X162084819Y-30536666D02*
X161608628Y-30869999D01*
X162084819Y-31108094D02*
X161084819Y-31108094D01*
X161084819Y-31108094D02*
X161084819Y-30727142D01*
X161084819Y-30727142D02*
X161132438Y-30631904D01*
X161132438Y-30631904D02*
X161180057Y-30584285D01*
X161180057Y-30584285D02*
X161275295Y-30536666D01*
X161275295Y-30536666D02*
X161418152Y-30536666D01*
X161418152Y-30536666D02*
X161513390Y-30584285D01*
X161513390Y-30584285D02*
X161561009Y-30631904D01*
X161561009Y-30631904D02*
X161608628Y-30727142D01*
X161608628Y-30727142D02*
X161608628Y-31108094D01*
X161084819Y-29631904D02*
X161084819Y-30108094D01*
X161084819Y-30108094D02*
X161561009Y-30155713D01*
X161561009Y-30155713D02*
X161513390Y-30108094D01*
X161513390Y-30108094D02*
X161465771Y-30012856D01*
X161465771Y-30012856D02*
X161465771Y-29774761D01*
X161465771Y-29774761D02*
X161513390Y-29679523D01*
X161513390Y-29679523D02*
X161561009Y-29631904D01*
X161561009Y-29631904D02*
X161656247Y-29584285D01*
X161656247Y-29584285D02*
X161894342Y-29584285D01*
X161894342Y-29584285D02*
X161989580Y-29631904D01*
X161989580Y-29631904D02*
X162037200Y-29679523D01*
X162037200Y-29679523D02*
X162084819Y-29774761D01*
X162084819Y-29774761D02*
X162084819Y-30012856D01*
X162084819Y-30012856D02*
X162037200Y-30108094D01*
X162037200Y-30108094D02*
X161989580Y-30155713D01*
X130624819Y-79092857D02*
X130148628Y-79426190D01*
X130624819Y-79664285D02*
X129624819Y-79664285D01*
X129624819Y-79664285D02*
X129624819Y-79283333D01*
X129624819Y-79283333D02*
X129672438Y-79188095D01*
X129672438Y-79188095D02*
X129720057Y-79140476D01*
X129720057Y-79140476D02*
X129815295Y-79092857D01*
X129815295Y-79092857D02*
X129958152Y-79092857D01*
X129958152Y-79092857D02*
X130053390Y-79140476D01*
X130053390Y-79140476D02*
X130101009Y-79188095D01*
X130101009Y-79188095D02*
X130148628Y-79283333D01*
X130148628Y-79283333D02*
X130148628Y-79664285D01*
X130624819Y-78140476D02*
X130624819Y-78711904D01*
X130624819Y-78426190D02*
X129624819Y-78426190D01*
X129624819Y-78426190D02*
X129767676Y-78521428D01*
X129767676Y-78521428D02*
X129862914Y-78616666D01*
X129862914Y-78616666D02*
X129910533Y-78711904D01*
X130624819Y-77188095D02*
X130624819Y-77759523D01*
X130624819Y-77473809D02*
X129624819Y-77473809D01*
X129624819Y-77473809D02*
X129767676Y-77569047D01*
X129767676Y-77569047D02*
X129862914Y-77664285D01*
X129862914Y-77664285D02*
X129910533Y-77759523D01*
X182738095Y-87004819D02*
X182738095Y-86004819D01*
X182738095Y-86481009D02*
X183309523Y-86481009D01*
X183309523Y-87004819D02*
X183309523Y-86004819D01*
X183738095Y-86100057D02*
X183785714Y-86052438D01*
X183785714Y-86052438D02*
X183880952Y-86004819D01*
X183880952Y-86004819D02*
X184119047Y-86004819D01*
X184119047Y-86004819D02*
X184214285Y-86052438D01*
X184214285Y-86052438D02*
X184261904Y-86100057D01*
X184261904Y-86100057D02*
X184309523Y-86195295D01*
X184309523Y-86195295D02*
X184309523Y-86290533D01*
X184309523Y-86290533D02*
X184261904Y-86433390D01*
X184261904Y-86433390D02*
X183690476Y-87004819D01*
X183690476Y-87004819D02*
X184309523Y-87004819D01*
X99706667Y-55947200D02*
X99849524Y-55994819D01*
X99849524Y-55994819D02*
X100087619Y-55994819D01*
X100087619Y-55994819D02*
X100182857Y-55947200D01*
X100182857Y-55947200D02*
X100230476Y-55899580D01*
X100230476Y-55899580D02*
X100278095Y-55804342D01*
X100278095Y-55804342D02*
X100278095Y-55709104D01*
X100278095Y-55709104D02*
X100230476Y-55613866D01*
X100230476Y-55613866D02*
X100182857Y-55566247D01*
X100182857Y-55566247D02*
X100087619Y-55518628D01*
X100087619Y-55518628D02*
X99897143Y-55471009D01*
X99897143Y-55471009D02*
X99801905Y-55423390D01*
X99801905Y-55423390D02*
X99754286Y-55375771D01*
X99754286Y-55375771D02*
X99706667Y-55280533D01*
X99706667Y-55280533D02*
X99706667Y-55185295D01*
X99706667Y-55185295D02*
X99754286Y-55090057D01*
X99754286Y-55090057D02*
X99801905Y-55042438D01*
X99801905Y-55042438D02*
X99897143Y-54994819D01*
X99897143Y-54994819D02*
X100135238Y-54994819D01*
X100135238Y-54994819D02*
X100278095Y-55042438D01*
X100611429Y-54994819D02*
X100849524Y-55994819D01*
X100849524Y-55994819D02*
X101040000Y-55280533D01*
X101040000Y-55280533D02*
X101230476Y-55994819D01*
X101230476Y-55994819D02*
X101468572Y-54994819D01*
X101801905Y-55090057D02*
X101849524Y-55042438D01*
X101849524Y-55042438D02*
X101944762Y-54994819D01*
X101944762Y-54994819D02*
X102182857Y-54994819D01*
X102182857Y-54994819D02*
X102278095Y-55042438D01*
X102278095Y-55042438D02*
X102325714Y-55090057D01*
X102325714Y-55090057D02*
X102373333Y-55185295D01*
X102373333Y-55185295D02*
X102373333Y-55280533D01*
X102373333Y-55280533D02*
X102325714Y-55423390D01*
X102325714Y-55423390D02*
X101754286Y-55994819D01*
X101754286Y-55994819D02*
X102373333Y-55994819D01*
D11*
%TO.C,U4*%
X121000000Y-49780000D02*
G75*
G02*
X119000000Y-49780000I-1000000J0D01*
G01*
X114750000Y-49720000D02*
X125250000Y-49720000D01*
X125250000Y-70280000D01*
X114750000Y-70280000D01*
X114750000Y-49720000D01*
X122250000Y-70220000D02*
X122250000Y-49780000D01*
X122250000Y-49780000D02*
X121000000Y-49780000D01*
X119000000Y-49780000D02*
X117750000Y-49780000D01*
X117750000Y-70220000D02*
X122250000Y-70220000D01*
X117750000Y-49780000D02*
X117750000Y-70220000D01*
%TO.C,R3*%
X121227064Y-74590000D02*
X119772936Y-74590000D01*
X121227064Y-76410000D02*
X119772936Y-76410000D01*
%TO.C,C4*%
X84288748Y-51090000D02*
X85711252Y-51090000D01*
X84288748Y-52910000D02*
X85711252Y-52910000D01*
%TO.C,R15*%
X154012936Y-59280000D02*
X155467064Y-59280000D01*
X154012936Y-61100000D02*
X155467064Y-61100000D01*
%TO.C,J1*%
X89497500Y-39880000D02*
X100237500Y-39880000D01*
X89497500Y-50120000D02*
X89497500Y-39880000D01*
X93117500Y-50120000D02*
X93117500Y-39880000D01*
X94117500Y-50120000D02*
X94117500Y-39880000D01*
X98117500Y-50120000D02*
X98117500Y-39880000D01*
X100237500Y-39880000D02*
X100237500Y-47200000D01*
X100237500Y-47800000D02*
X100237500Y-50120000D01*
X100237500Y-50120000D02*
X89497500Y-50120000D01*
X100847500Y-47940000D02*
X100237500Y-47500000D01*
X100847500Y-47060000D01*
X100847500Y-47940000D01*
G36*
X100847500Y-47940000D02*
G01*
X100237500Y-47500000D01*
X100847500Y-47060000D01*
X100847500Y-47940000D01*
G37*
%TO.C,D5*%
X143135000Y-40835000D02*
X140045000Y-40835000D01*
X141590000Y-46385000D02*
G75*
G02*
X140045170Y-40835000I0J2990000D01*
G01*
X143134830Y-40835000D02*
G75*
G02*
X141590000Y-46385000I-1544830J-2560000D01*
G01*
X144090000Y-43395000D02*
G75*
G02*
X139090000Y-43395000I-2500000J0D01*
G01*
X139090000Y-43395000D02*
G75*
G02*
X144090000Y-43395000I2500000J0D01*
G01*
%TO.C,C2*%
X121195225Y-30190000D02*
X121695225Y-30190000D01*
X121445225Y-29940000D02*
X121445225Y-30440000D01*
X124000000Y-29085000D02*
X124000000Y-30625000D01*
X124000000Y-32705000D02*
X124000000Y-34245000D01*
X124040000Y-29085000D02*
X124040000Y-30625000D01*
X124040000Y-32705000D02*
X124040000Y-34245000D01*
X124080000Y-29086000D02*
X124080000Y-30625000D01*
X124080000Y-32705000D02*
X124080000Y-34244000D01*
X124120000Y-29088000D02*
X124120000Y-30625000D01*
X124120000Y-32705000D02*
X124120000Y-34242000D01*
X124160000Y-29090000D02*
X124160000Y-30625000D01*
X124160000Y-32705000D02*
X124160000Y-34240000D01*
X124200000Y-29093000D02*
X124200000Y-30625000D01*
X124200000Y-32705000D02*
X124200000Y-34237000D01*
X124240000Y-29096000D02*
X124240000Y-30625000D01*
X124240000Y-32705000D02*
X124240000Y-34234000D01*
X124280000Y-29100000D02*
X124280000Y-30625000D01*
X124280000Y-32705000D02*
X124280000Y-34230000D01*
X124320000Y-29105000D02*
X124320000Y-30625000D01*
X124320000Y-32705000D02*
X124320000Y-34225000D01*
X124360000Y-29110000D02*
X124360000Y-30625000D01*
X124360000Y-32705000D02*
X124360000Y-34220000D01*
X124400000Y-29116000D02*
X124400000Y-30625000D01*
X124400000Y-32705000D02*
X124400000Y-34214000D01*
X124440000Y-29122000D02*
X124440000Y-30625000D01*
X124440000Y-32705000D02*
X124440000Y-34208000D01*
X124480000Y-29129000D02*
X124480000Y-30625000D01*
X124480000Y-32705000D02*
X124480000Y-34201000D01*
X124520000Y-29137000D02*
X124520000Y-30625000D01*
X124520000Y-32705000D02*
X124520000Y-34193000D01*
X124560000Y-29146000D02*
X124560000Y-30625000D01*
X124560000Y-32705000D02*
X124560000Y-34184000D01*
X124600000Y-29155000D02*
X124600000Y-30625000D01*
X124600000Y-32705000D02*
X124600000Y-34175000D01*
X124640000Y-29164000D02*
X124640000Y-30625000D01*
X124640000Y-32705000D02*
X124640000Y-34166000D01*
X124680000Y-29175000D02*
X124680000Y-30625000D01*
X124680000Y-32705000D02*
X124680000Y-34155000D01*
X124720000Y-29186000D02*
X124720000Y-30625000D01*
X124720000Y-32705000D02*
X124720000Y-34144000D01*
X124760000Y-29198000D02*
X124760000Y-30625000D01*
X124760000Y-32705000D02*
X124760000Y-34132000D01*
X124800000Y-29210000D02*
X124800000Y-30625000D01*
X124800000Y-32705000D02*
X124800000Y-34120000D01*
X124840000Y-29223000D02*
X124840000Y-30625000D01*
X124840000Y-32705000D02*
X124840000Y-34107000D01*
X124880000Y-29237000D02*
X124880000Y-30625000D01*
X124880000Y-32705000D02*
X124880000Y-34093000D01*
X124920000Y-29252000D02*
X124920000Y-30625000D01*
X124920000Y-32705000D02*
X124920000Y-34078000D01*
X124960000Y-29267000D02*
X124960000Y-30625000D01*
X124960000Y-32705000D02*
X124960000Y-34063000D01*
X125000000Y-29283000D02*
X125000000Y-30625000D01*
X125000000Y-32705000D02*
X125000000Y-34047000D01*
X125040000Y-29300000D02*
X125040000Y-30625000D01*
X125040000Y-32705000D02*
X125040000Y-34030000D01*
X125080000Y-29318000D02*
X125080000Y-30625000D01*
X125080000Y-32705000D02*
X125080000Y-34012000D01*
X125120000Y-29336000D02*
X125120000Y-30625000D01*
X125120000Y-32705000D02*
X125120000Y-33994000D01*
X125160000Y-29356000D02*
X125160000Y-30625000D01*
X125160000Y-32705000D02*
X125160000Y-33974000D01*
X125200000Y-29376000D02*
X125200000Y-30625000D01*
X125200000Y-32705000D02*
X125200000Y-33954000D01*
X125240000Y-29397000D02*
X125240000Y-30625000D01*
X125240000Y-32705000D02*
X125240000Y-33933000D01*
X125280000Y-29419000D02*
X125280000Y-30625000D01*
X125280000Y-32705000D02*
X125280000Y-33911000D01*
X125320000Y-29442000D02*
X125320000Y-30625000D01*
X125320000Y-32705000D02*
X125320000Y-33888000D01*
X125360000Y-29466000D02*
X125360000Y-30625000D01*
X125360000Y-32705000D02*
X125360000Y-33864000D01*
X125400000Y-29490000D02*
X125400000Y-30625000D01*
X125400000Y-32705000D02*
X125400000Y-33840000D01*
X125440000Y-29516000D02*
X125440000Y-30625000D01*
X125440000Y-32705000D02*
X125440000Y-33814000D01*
X125480000Y-29543000D02*
X125480000Y-30625000D01*
X125480000Y-32705000D02*
X125480000Y-33787000D01*
X125520000Y-29571000D02*
X125520000Y-30625000D01*
X125520000Y-32705000D02*
X125520000Y-33759000D01*
X125560000Y-29600000D02*
X125560000Y-30625000D01*
X125560000Y-32705000D02*
X125560000Y-33730000D01*
X125600000Y-29630000D02*
X125600000Y-30625000D01*
X125600000Y-32705000D02*
X125600000Y-33700000D01*
X125640000Y-29662000D02*
X125640000Y-30625000D01*
X125640000Y-32705000D02*
X125640000Y-33668000D01*
X125680000Y-29695000D02*
X125680000Y-30625000D01*
X125680000Y-32705000D02*
X125680000Y-33635000D01*
X125720000Y-29729000D02*
X125720000Y-30625000D01*
X125720000Y-32705000D02*
X125720000Y-33601000D01*
X125760000Y-29764000D02*
X125760000Y-30625000D01*
X125760000Y-32705000D02*
X125760000Y-33566000D01*
X125800000Y-29801000D02*
X125800000Y-30625000D01*
X125800000Y-32705000D02*
X125800000Y-33529000D01*
X125840000Y-29840000D02*
X125840000Y-30625000D01*
X125840000Y-32705000D02*
X125840000Y-33490000D01*
X125880000Y-29880000D02*
X125880000Y-30625000D01*
X125880000Y-32705000D02*
X125880000Y-33450000D01*
X125920000Y-29922000D02*
X125920000Y-30625000D01*
X125920000Y-32705000D02*
X125920000Y-33408000D01*
X125960000Y-29966000D02*
X125960000Y-30625000D01*
X125960000Y-32705000D02*
X125960000Y-33364000D01*
X126000000Y-30013000D02*
X126000000Y-30625000D01*
X126000000Y-32705000D02*
X126000000Y-33317000D01*
X126040000Y-30061000D02*
X126040000Y-33269000D01*
X126080000Y-30112000D02*
X126080000Y-33218000D01*
X126120000Y-30166000D02*
X126120000Y-33164000D01*
X126160000Y-30222000D02*
X126160000Y-33108000D01*
X126200000Y-30282000D02*
X126200000Y-33048000D01*
X126240000Y-30346000D02*
X126240000Y-32984000D01*
X126280000Y-30414000D02*
X126280000Y-32916000D01*
X126320000Y-30488000D02*
X126320000Y-32842000D01*
X126360000Y-30567000D02*
X126360000Y-32763000D01*
X126400000Y-30654000D02*
X126400000Y-32676000D01*
X126440000Y-30751000D02*
X126440000Y-32579000D01*
X126480000Y-30860000D02*
X126480000Y-32470000D01*
X126520000Y-30988000D02*
X126520000Y-32342000D01*
X126560000Y-31148000D02*
X126560000Y-32182000D01*
X126600000Y-31382000D02*
X126600000Y-31948000D01*
X126620000Y-31665000D02*
G75*
G02*
X121380000Y-31665000I-2620000J0D01*
G01*
X121380000Y-31665000D02*
G75*
G02*
X126620000Y-31665000I2620000J0D01*
G01*
%TO.C,U1*%
X109860000Y-32010000D02*
X109860000Y-33660000D01*
X109860000Y-35660000D02*
X109860000Y-37310000D01*
X109860000Y-37310000D02*
X120140000Y-37310000D01*
X120140000Y-32010000D02*
X109860000Y-32010000D01*
X120140000Y-37310000D02*
X120140000Y-32010000D01*
X109860000Y-33660000D02*
G75*
G02*
X109860000Y-35660000I0J-1000000D01*
G01*
%TO.C,R1*%
X86192936Y-64090000D02*
X87647064Y-64090000D01*
X86192936Y-65910000D02*
X87647064Y-65910000D01*
%TO.C,R6*%
X156560000Y-26330000D02*
X156560000Y-27100000D01*
X156560000Y-34410000D02*
X156560000Y-33640000D01*
X155190000Y-33640000D02*
X157930000Y-33640000D01*
X157930000Y-27100000D01*
X155190000Y-27100000D01*
X155190000Y-33640000D01*
%TO.C,D1*%
X108990000Y-42000000D02*
X111280000Y-42000000D01*
X112060000Y-40530000D02*
X112060000Y-43470000D01*
X112180000Y-40530000D02*
X112180000Y-43470000D01*
X112300000Y-40530000D02*
X112300000Y-43470000D01*
X119010000Y-42000000D02*
X116720000Y-42000000D01*
X111280000Y-40530000D02*
X116720000Y-40530000D01*
X116720000Y-43470000D01*
X111280000Y-43470000D01*
X111280000Y-40530000D01*
%TO.C,D3*%
X158075000Y-40835000D02*
X154985000Y-40835000D01*
X156530000Y-46385000D02*
G75*
G02*
X154985170Y-40835000I0J2990000D01*
G01*
X158074830Y-40835000D02*
G75*
G02*
X156530000Y-46385000I-1544830J-2560000D01*
G01*
X159030000Y-43395000D02*
G75*
G02*
X154030000Y-43395000I-2500000J0D01*
G01*
X154030000Y-43395000D02*
G75*
G02*
X159030000Y-43395000I2500000J0D01*
G01*
%TO.C,R20*%
X154012936Y-54280000D02*
X155467064Y-54280000D01*
X154012936Y-56100000D02*
X155467064Y-56100000D01*
%TO.C,C5*%
X101773752Y-71260000D02*
X100351248Y-71260000D01*
X101773752Y-73080000D02*
X100351248Y-73080000D01*
%TO.C,R10*%
X128090000Y-79277064D02*
X128090000Y-77822936D01*
X129910000Y-79277064D02*
X129910000Y-77822936D01*
%TO.C,R7*%
X149060000Y-26330000D02*
X149060000Y-27100000D01*
X149060000Y-34410000D02*
X149060000Y-33640000D01*
X147690000Y-33640000D02*
X150430000Y-33640000D01*
X150430000Y-27100000D01*
X147690000Y-27100000D01*
X147690000Y-33640000D01*
%TO.C,R9*%
X100210436Y-74590000D02*
X101664564Y-74590000D01*
X100210436Y-76410000D02*
X101664564Y-76410000D01*
%TO.C,R8*%
X141560000Y-26330000D02*
X141560000Y-27100000D01*
X141560000Y-34410000D02*
X141560000Y-33640000D01*
X140190000Y-33640000D02*
X142930000Y-33640000D01*
X142930000Y-27100000D01*
X140190000Y-27100000D01*
X140190000Y-33640000D01*
%TO.C,SW1*%
X73500000Y-53250000D02*
X73500000Y-54750000D01*
X74750000Y-57250000D02*
X79250000Y-57250000D01*
X79250000Y-50750000D02*
X74750000Y-50750000D01*
X80500000Y-54750000D02*
X80500000Y-53250000D01*
%TO.C,R19*%
X153912936Y-51780000D02*
X155367064Y-51780000D01*
X153912936Y-53600000D02*
X155367064Y-53600000D01*
%TO.C,U3*%
X105540000Y-63000000D02*
X105540000Y-64000000D01*
X105540000Y-64000000D02*
X106040000Y-63500000D01*
X106040000Y-63500000D02*
X105540000Y-63000000D01*
X106240000Y-57090000D02*
X106550000Y-57090000D01*
X106240000Y-65910000D02*
X106240000Y-57090000D01*
X106550000Y-65910000D02*
X106240000Y-65910000D01*
X110760000Y-57090000D02*
X110450000Y-57090000D01*
X110760000Y-57090000D02*
X110760000Y-65910000D01*
X110760000Y-65910000D02*
X110450000Y-65910000D01*
%TO.C,U7*%
X163902500Y-53352500D02*
X165532500Y-53352500D01*
X163902500Y-54982500D02*
X163902500Y-53352500D01*
D10*
X164262500Y-53712500D02*
X164262500Y-66412500D01*
X164262500Y-66412500D02*
X171882500Y-66412500D01*
X171882500Y-53712500D02*
X164262500Y-53712500D01*
X171882500Y-66412500D02*
X171882500Y-53712500D01*
D11*
%TO.C,R16*%
X154012936Y-61780000D02*
X155467064Y-61780000D01*
X154012936Y-63600000D02*
X155467064Y-63600000D01*
%TO.C,R17*%
X154012936Y-64780000D02*
X155467064Y-64780000D01*
X154012936Y-66600000D02*
X155467064Y-66600000D01*
%TO.C,C1*%
X101740113Y-29690000D02*
X102240113Y-29690000D01*
X101990113Y-29440000D02*
X101990113Y-29940000D01*
X104544888Y-28585000D02*
X104544888Y-30125000D01*
X104544888Y-32205000D02*
X104544888Y-33745000D01*
X104584888Y-28585000D02*
X104584888Y-30125000D01*
X104584888Y-32205000D02*
X104584888Y-33745000D01*
X104624888Y-28586000D02*
X104624888Y-30125000D01*
X104624888Y-32205000D02*
X104624888Y-33744000D01*
X104664888Y-28588000D02*
X104664888Y-30125000D01*
X104664888Y-32205000D02*
X104664888Y-33742000D01*
X104704888Y-28590000D02*
X104704888Y-30125000D01*
X104704888Y-32205000D02*
X104704888Y-33740000D01*
X104744888Y-28593000D02*
X104744888Y-30125000D01*
X104744888Y-32205000D02*
X104744888Y-33737000D01*
X104784888Y-28596000D02*
X104784888Y-30125000D01*
X104784888Y-32205000D02*
X104784888Y-33734000D01*
X104824888Y-28600000D02*
X104824888Y-30125000D01*
X104824888Y-32205000D02*
X104824888Y-33730000D01*
X104864888Y-28605000D02*
X104864888Y-30125000D01*
X104864888Y-32205000D02*
X104864888Y-33725000D01*
X104904888Y-28610000D02*
X104904888Y-30125000D01*
X104904888Y-32205000D02*
X104904888Y-33720000D01*
X104944888Y-28616000D02*
X104944888Y-30125000D01*
X104944888Y-32205000D02*
X104944888Y-33714000D01*
X104984888Y-28622000D02*
X104984888Y-30125000D01*
X104984888Y-32205000D02*
X104984888Y-33708000D01*
X105024888Y-28629000D02*
X105024888Y-30125000D01*
X105024888Y-32205000D02*
X105024888Y-33701000D01*
X105064888Y-28637000D02*
X105064888Y-30125000D01*
X105064888Y-32205000D02*
X105064888Y-33693000D01*
X105104888Y-28646000D02*
X105104888Y-30125000D01*
X105104888Y-32205000D02*
X105104888Y-33684000D01*
X105144888Y-28655000D02*
X105144888Y-30125000D01*
X105144888Y-32205000D02*
X105144888Y-33675000D01*
X105184888Y-28664000D02*
X105184888Y-30125000D01*
X105184888Y-32205000D02*
X105184888Y-33666000D01*
X105224888Y-28675000D02*
X105224888Y-30125000D01*
X105224888Y-32205000D02*
X105224888Y-33655000D01*
X105264888Y-28686000D02*
X105264888Y-30125000D01*
X105264888Y-32205000D02*
X105264888Y-33644000D01*
X105304888Y-28698000D02*
X105304888Y-30125000D01*
X105304888Y-32205000D02*
X105304888Y-33632000D01*
X105344888Y-28710000D02*
X105344888Y-30125000D01*
X105344888Y-32205000D02*
X105344888Y-33620000D01*
X105384888Y-28723000D02*
X105384888Y-30125000D01*
X105384888Y-32205000D02*
X105384888Y-33607000D01*
X105424888Y-28737000D02*
X105424888Y-30125000D01*
X105424888Y-32205000D02*
X105424888Y-33593000D01*
X105464888Y-28752000D02*
X105464888Y-30125000D01*
X105464888Y-32205000D02*
X105464888Y-33578000D01*
X105504888Y-28767000D02*
X105504888Y-30125000D01*
X105504888Y-32205000D02*
X105504888Y-33563000D01*
X105544888Y-28783000D02*
X105544888Y-30125000D01*
X105544888Y-32205000D02*
X105544888Y-33547000D01*
X105584888Y-28800000D02*
X105584888Y-30125000D01*
X105584888Y-32205000D02*
X105584888Y-33530000D01*
X105624888Y-28818000D02*
X105624888Y-30125000D01*
X105624888Y-32205000D02*
X105624888Y-33512000D01*
X105664888Y-28836000D02*
X105664888Y-30125000D01*
X105664888Y-32205000D02*
X105664888Y-33494000D01*
X105704888Y-28856000D02*
X105704888Y-30125000D01*
X105704888Y-32205000D02*
X105704888Y-33474000D01*
X105744888Y-28876000D02*
X105744888Y-30125000D01*
X105744888Y-32205000D02*
X105744888Y-33454000D01*
X105784888Y-28897000D02*
X105784888Y-30125000D01*
X105784888Y-32205000D02*
X105784888Y-33433000D01*
X105824888Y-28919000D02*
X105824888Y-30125000D01*
X105824888Y-32205000D02*
X105824888Y-33411000D01*
X105864888Y-28942000D02*
X105864888Y-30125000D01*
X105864888Y-32205000D02*
X105864888Y-33388000D01*
X105904888Y-28966000D02*
X105904888Y-30125000D01*
X105904888Y-32205000D02*
X105904888Y-33364000D01*
X105944888Y-28990000D02*
X105944888Y-30125000D01*
X105944888Y-32205000D02*
X105944888Y-33340000D01*
X105984888Y-29016000D02*
X105984888Y-30125000D01*
X105984888Y-32205000D02*
X105984888Y-33314000D01*
X106024888Y-29043000D02*
X106024888Y-30125000D01*
X106024888Y-32205000D02*
X106024888Y-33287000D01*
X106064888Y-29071000D02*
X106064888Y-30125000D01*
X106064888Y-32205000D02*
X106064888Y-33259000D01*
X106104888Y-29100000D02*
X106104888Y-30125000D01*
X106104888Y-32205000D02*
X106104888Y-33230000D01*
X106144888Y-29130000D02*
X106144888Y-30125000D01*
X106144888Y-32205000D02*
X106144888Y-33200000D01*
X106184888Y-29162000D02*
X106184888Y-30125000D01*
X106184888Y-32205000D02*
X106184888Y-33168000D01*
X106224888Y-29195000D02*
X106224888Y-30125000D01*
X106224888Y-32205000D02*
X106224888Y-33135000D01*
X106264888Y-29229000D02*
X106264888Y-30125000D01*
X106264888Y-32205000D02*
X106264888Y-33101000D01*
X106304888Y-29264000D02*
X106304888Y-30125000D01*
X106304888Y-32205000D02*
X106304888Y-33066000D01*
X106344888Y-29301000D02*
X106344888Y-30125000D01*
X106344888Y-32205000D02*
X106344888Y-33029000D01*
X106384888Y-29340000D02*
X106384888Y-30125000D01*
X106384888Y-32205000D02*
X106384888Y-32990000D01*
X106424888Y-29380000D02*
X106424888Y-30125000D01*
X106424888Y-32205000D02*
X106424888Y-32950000D01*
X106464888Y-29422000D02*
X106464888Y-30125000D01*
X106464888Y-32205000D02*
X106464888Y-32908000D01*
X106504888Y-29466000D02*
X106504888Y-30125000D01*
X106504888Y-32205000D02*
X106504888Y-32864000D01*
X106544888Y-29513000D02*
X106544888Y-30125000D01*
X106544888Y-32205000D02*
X106544888Y-32817000D01*
X106584888Y-29561000D02*
X106584888Y-32769000D01*
X106624888Y-29612000D02*
X106624888Y-32718000D01*
X106664888Y-29666000D02*
X106664888Y-32664000D01*
X106704888Y-29722000D02*
X106704888Y-32608000D01*
X106744888Y-29782000D02*
X106744888Y-32548000D01*
X106784888Y-29846000D02*
X106784888Y-32484000D01*
X106824888Y-29914000D02*
X106824888Y-32416000D01*
X106864888Y-29988000D02*
X106864888Y-32342000D01*
X106904888Y-30067000D02*
X106904888Y-32263000D01*
X106944888Y-30154000D02*
X106944888Y-32176000D01*
X106984888Y-30251000D02*
X106984888Y-32079000D01*
X107024888Y-30360000D02*
X107024888Y-31970000D01*
X107064888Y-30488000D02*
X107064888Y-31842000D01*
X107104888Y-30648000D02*
X107104888Y-31682000D01*
X107144888Y-30882000D02*
X107144888Y-31448000D01*
X107164888Y-31165000D02*
G75*
G02*
X101924888Y-31165000I-2620000J0D01*
G01*
X101924888Y-31165000D02*
G75*
G02*
X107164888Y-31165000I2620000J0D01*
G01*
%TO.C,U2*%
X96845000Y-56360000D02*
X96845000Y-66640000D01*
X96845000Y-66640000D02*
X98495000Y-66640000D01*
X100495000Y-66640000D02*
X102145000Y-66640000D01*
X102145000Y-56360000D02*
X96845000Y-56360000D01*
X102145000Y-66640000D02*
X102145000Y-56360000D01*
X98495000Y-66640000D02*
G75*
G02*
X100495000Y-66640000I1000000J0D01*
G01*
%TO.C,R13*%
X134090000Y-79277064D02*
X134090000Y-77822936D01*
X135910000Y-79277064D02*
X135910000Y-77822936D01*
%TO.C,C3*%
X101773752Y-68260000D02*
X100351248Y-68260000D01*
X101773752Y-70080000D02*
X100351248Y-70080000D01*
%TO.C,D4*%
X150605000Y-40835000D02*
X147515000Y-40835000D01*
X149060000Y-46385000D02*
G75*
G02*
X147515170Y-40835000I0J2990000D01*
G01*
X150604830Y-40835000D02*
G75*
G02*
X149060000Y-46385000I-1544830J-2560000D01*
G01*
X151560000Y-43395000D02*
G75*
G02*
X146560000Y-43395000I-2500000J0D01*
G01*
X146560000Y-43395000D02*
G75*
G02*
X151560000Y-43395000I2500000J0D01*
G01*
%TO.C,R12*%
X137090000Y-79277064D02*
X137090000Y-77822936D01*
X138910000Y-79277064D02*
X138910000Y-77822936D01*
%TO.C,L1*%
X131720000Y-42165000D02*
G75*
G02*
X124280000Y-42165000I-3720000J0D01*
G01*
X124280000Y-42165000D02*
G75*
G02*
X131720000Y-42165000I3720000J0D01*
G01*
%TO.C,R18*%
X154012936Y-67280000D02*
X155467064Y-67280000D01*
X154012936Y-69100000D02*
X155467064Y-69100000D01*
%TO.C,R14*%
X154012936Y-56780000D02*
X155467064Y-56780000D01*
X154012936Y-58600000D02*
X155467064Y-58600000D01*
%TO.C,R4*%
X83772936Y-55590000D02*
X85227064Y-55590000D01*
X83772936Y-57410000D02*
X85227064Y-57410000D01*
%TO.C,D2*%
X165545000Y-40835000D02*
X162455000Y-40835000D01*
X164000000Y-46385000D02*
G75*
G02*
X162455170Y-40835000I0J2990000D01*
G01*
X165544830Y-40835000D02*
G75*
G02*
X164000000Y-46385000I-1544830J-2560000D01*
G01*
X166500000Y-43395000D02*
G75*
G02*
X161500000Y-43395000I-2500000J0D01*
G01*
X161500000Y-43395000D02*
G75*
G02*
X166500000Y-43395000I2500000J0D01*
G01*
%TO.C,U6*%
X143560000Y-50130000D02*
X143560000Y-70570000D01*
X143560000Y-70570000D02*
X148060000Y-70570000D01*
X144810000Y-50130000D02*
X143560000Y-50130000D01*
X148060000Y-50130000D02*
X146810000Y-50130000D01*
X148060000Y-70570000D02*
X148060000Y-50130000D01*
X140560000Y-50070000D02*
X151060000Y-50070000D01*
X151060000Y-70630000D01*
X140560000Y-70630000D01*
X140560000Y-50070000D01*
X146810000Y-50130000D02*
G75*
G02*
X144810000Y-50130000I-1000000J0D01*
G01*
%TO.C,U5*%
X130750000Y-49780000D02*
X130750000Y-70220000D01*
X130750000Y-70220000D02*
X135250000Y-70220000D01*
X132000000Y-49780000D02*
X130750000Y-49780000D01*
X135250000Y-49780000D02*
X134000000Y-49780000D01*
X135250000Y-70220000D02*
X135250000Y-49780000D01*
X127750000Y-49720000D02*
X138250000Y-49720000D01*
X138250000Y-70280000D01*
X127750000Y-70280000D01*
X127750000Y-49720000D01*
X134000000Y-49780000D02*
G75*
G02*
X132000000Y-49780000I-1000000J0D01*
G01*
%TO.C,R5*%
X164000000Y-26330000D02*
X164000000Y-27100000D01*
X164000000Y-34410000D02*
X164000000Y-33640000D01*
X162630000Y-33640000D02*
X165370000Y-33640000D01*
X165370000Y-27100000D01*
X162630000Y-27100000D01*
X162630000Y-33640000D01*
%TO.C,R11*%
X131090000Y-79177064D02*
X131090000Y-77722936D01*
X132910000Y-79177064D02*
X132910000Y-77722936D01*
%TO.C,R2*%
X86192936Y-60090000D02*
X87647064Y-60090000D01*
X86192936Y-61910000D02*
X87647064Y-61910000D01*
%TO.C,SW2*%
X106150000Y-54360000D02*
X95930000Y-54360000D01*
X95930000Y-51640000D01*
X106150000Y-51640000D01*
X106150000Y-54360000D01*
%TD*%
M02*
