M48
; DRILL file {KiCad 9.0.3} date 2025-12-16T09:57:54+0100
; FORMAT={-:-/ absolute / metric / decimal}
; #@! TF.CreationDate,2025-12-16T09:57:54+01:00
; #@! TF.GenerationSoftware,Kicad,Pcbnew,9.0.3
; #@! TF.FileFunction,MixedPlating,1,2
FMAT,2
METRIC
; #@! TA.AperFunction,Plated,PTH,ViaDrill
T1C0.300
; #@! TA.AperFunction,Plated,PTH,ComponentDrill
T2C0.800
; #@! TA.AperFunction,Plated,PTH,ComponentDrill
T3C0.900
; #@! TA.AperFunction,Plated,PTH,ComponentDrill
T4C1.100
; #@! TA.AperFunction,Plated,PTH,ComponentDrill
T5C1.200
; #@! TA.AperFunction,Plated,PTH,ComponentDrill
T6C1.400
; #@! TA.AperFunction,Plated,PTH,ComponentDrill
T7C1.500
; #@! TA.AperFunction,NonPlated,NPTH,ComponentDrill
T8C5.500
%
G90
G05
T1
X109.0Y-71.0
X119.981Y-59.981
X123.5Y-36.0
X134.71Y-66.79
X140.25Y-47.75
X143.0Y-47.5
X145.5Y-48.0
T2
X95.685Y-57.69
X95.685Y-60.23
X95.685Y-62.77
X95.685Y-65.31
X98.5Y-53.0
X101.04Y-53.0
X103.305Y-57.69
X103.305Y-60.23
X103.305Y-62.77
X103.305Y-65.31
X103.545Y-31.165
X103.58Y-53.0
X105.545Y-31.165
X108.5Y-59.5
X108.5Y-61.5
X108.5Y-63.5
X111.19Y-30.85
X111.19Y-38.47
X113.73Y-30.85
X113.73Y-38.47
X116.19Y-51.11
X116.19Y-53.65
X116.19Y-56.19
X116.19Y-58.73
X116.19Y-61.27
X116.19Y-63.81
X116.19Y-66.35
X116.19Y-68.89
X116.27Y-30.85
X116.27Y-38.47
X118.81Y-30.85
X118.81Y-38.47
X123.0Y-31.665
X123.81Y-51.11
X123.81Y-53.65
X123.81Y-56.19
X123.81Y-58.73
X123.81Y-61.27
X123.81Y-63.81
X123.81Y-66.35
X123.81Y-68.89
X125.0Y-31.665
X129.19Y-51.11
X129.19Y-53.65
X129.19Y-56.19
X129.19Y-58.73
X129.19Y-61.27
X129.19Y-63.81
X129.19Y-66.35
X129.19Y-68.89
X136.81Y-51.11
X136.81Y-53.65
X136.81Y-56.19
X136.81Y-58.73
X136.81Y-61.27
X136.81Y-63.81
X136.81Y-66.35
X136.81Y-68.89
X141.56Y-25.29
X141.56Y-35.45
X142.0Y-51.46
X142.0Y-54.0
X142.0Y-56.54
X142.0Y-59.08
X142.0Y-61.62
X142.0Y-64.16
X142.0Y-66.7
X142.0Y-69.24
X149.06Y-25.29
X149.06Y-35.45
X149.62Y-51.46
X149.62Y-54.0
X149.62Y-56.54
X149.62Y-59.08
X149.62Y-61.62
X149.62Y-64.16
X149.62Y-66.7
X149.62Y-69.24
X156.56Y-25.29
X156.56Y-35.45
X164.0Y-25.29
X164.0Y-35.45
X165.532Y-54.982
X165.532Y-57.523
X165.532Y-60.062
X165.532Y-62.602
X165.532Y-65.142
X170.612Y-54.982
X170.612Y-57.523
X170.612Y-60.062
X170.612Y-62.602
X170.612Y-65.142
T3
X141.59Y-42.125
X141.59Y-44.665
X149.06Y-42.125
X149.06Y-44.665
X156.53Y-42.125
X156.53Y-44.665
X164.0Y-42.125
X164.0Y-44.665
T4
X73.75Y-51.75
X73.75Y-56.25
X80.25Y-51.75
X80.25Y-56.25
X107.65Y-42.0
X120.35Y-42.0
T5
X128.0Y-40.665
X128.0Y-43.665
T6
X96.117Y-42.5
X96.117Y-47.5
T7
X108.5Y-57.4
X108.5Y-65.6
T8
X77.5Y-28.0
X77.5Y-93.5
X183.5Y-93.0
X184.0Y-28.5
M30
