%TF.GenerationSoftware,KiCad,Pcbnew,9.0.3*%
%TF.CreationDate,2025-12-16T09:59:01+01:00*%
%TF.ProjectId,PTP_Darijo_Matesic_Project1,5054505f-4461-4726-996a-6f5f4d617465,rev?*%
%TF.SameCoordinates,Original*%
%TF.FileFunction,Copper,L2,Bot*%
%TF.FilePolarity,Positive*%
%FSLAX46Y46*%
G04 Gerber Fmt 4.6, Leading zero omitted, Abs format (unit mm)*
G04 Created by KiCad (PCBNEW 9.0.3) date 2025-12-16 09:59:01*
%MOMM*%
%LPD*%
G01*
G04 APERTURE LIST*
G04 Aperture macros list*
%AMRoundRect*
0 Rectangle with rounded corners*
0 $1 Rounding radius*
0 $2 $3 $4 $5 $6 $7 $8 $9 X,Y pos of 4 corners*
0 Add a 4 corners polygon primitive as box body*
4,1,4,$2,$3,$4,$5,$6,$7,$8,$9,$2,$3,0*
0 Add four circle primitives for the rounded corners*
1,1,$1+$1,$2,$3*
1,1,$1+$1,$4,$5*
1,1,$1+$1,$6,$7*
1,1,$1+$1,$8,$9*
0 Add four rect primitives between the rounded corners*
20,1,$1+$1,$2,$3,$4,$5,0*
20,1,$1+$1,$4,$5,$6,$7,0*
20,1,$1+$1,$6,$7,$8,$9,0*
20,1,$1+$1,$8,$9,$2,$3,0*%
G04 Aperture macros list end*
%TA.AperFunction,ComponentPad*%
%ADD10O,2.400000X1.600000*%
%TD*%
%TA.AperFunction,ComponentPad*%
%ADD11RoundRect,0.250000X-0.950000X-0.550000X0.950000X-0.550000X0.950000X0.550000X-0.950000X0.550000X0*%
%TD*%
%TA.AperFunction,ComponentPad*%
%ADD12RoundRect,0.250001X1.149999X-1.149999X1.149999X1.149999X-1.149999X1.149999X-1.149999X-1.149999X0*%
%TD*%
%TA.AperFunction,ComponentPad*%
%ADD13C,2.800000*%
%TD*%
%TA.AperFunction,ComponentPad*%
%ADD14R,1.800000X1.800000*%
%TD*%
%TA.AperFunction,ComponentPad*%
%ADD15C,1.800000*%
%TD*%
%TA.AperFunction,ComponentPad*%
%ADD16RoundRect,0.250000X-0.550000X-0.550000X0.550000X-0.550000X0.550000X0.550000X-0.550000X0.550000X0*%
%TD*%
%TA.AperFunction,ComponentPad*%
%ADD17C,1.600000*%
%TD*%
%TA.AperFunction,ComponentPad*%
%ADD18RoundRect,0.250000X0.550000X-0.550000X0.550000X0.550000X-0.550000X0.550000X-0.550000X-0.550000X0*%
%TD*%
%TA.AperFunction,ComponentPad*%
%ADD19RoundRect,0.249999X-0.850001X-0.850001X0.850001X-0.850001X0.850001X0.850001X-0.850001X0.850001X0*%
%TD*%
%TA.AperFunction,ComponentPad*%
%ADD20C,2.200000*%
%TD*%
%TA.AperFunction,ComponentPad*%
%ADD21C,2.000000*%
%TD*%
%TA.AperFunction,ComponentPad*%
%ADD22O,3.500000X2.200000*%
%TD*%
%TA.AperFunction,ComponentPad*%
%ADD23R,2.500000X1.500000*%
%TD*%
%TA.AperFunction,ComponentPad*%
%ADD24O,2.500000X1.500000*%
%TD*%
%TA.AperFunction,ComponentPad*%
%ADD25R,1.600000X1.600000*%
%TD*%
%TA.AperFunction,ComponentPad*%
%ADD26RoundRect,0.250000X0.550000X0.550000X-0.550000X0.550000X-0.550000X-0.550000X0.550000X-0.550000X0*%
%TD*%
%TA.AperFunction,ComponentPad*%
%ADD27C,2.400000*%
%TD*%
%TA.AperFunction,ComponentPad*%
%ADD28R,1.500000X1.500000*%
%TD*%
%TA.AperFunction,ViaPad*%
%ADD29C,0.600000*%
%TD*%
%TA.AperFunction,Conductor*%
%ADD30C,0.300000*%
%TD*%
G04 APERTURE END LIST*
D10*
%TO.P,U4,16,VDD*%
%TO.N,+5V*%
X123810000Y-51110000D03*
%TO.P,U4,15,Q*%
%TO.N,Q1*%
X123810000Y-53650000D03*
%TO.P,U4,14,~{Q}*%
%TO.N,unconnected-(U4B-~{Q}-Pad14)*%
X123810000Y-56190000D03*
%TO.P,U4,13,C*%
%TO.N,Q0*%
X123810000Y-58730000D03*
%TO.P,U4,12,R*%
%TO.N,RESET*%
X123810000Y-61270000D03*
%TO.P,U4,11,K*%
%TO.N,Net-(U4B-J)*%
X123810000Y-63810000D03*
%TO.P,U4,10,J*%
X123810000Y-66350000D03*
%TO.P,U4,9,S*%
%TO.N,GND*%
X123810000Y-68890000D03*
%TO.P,U4,8,VSS*%
X116190000Y-68890000D03*
%TO.P,U4,7,S*%
X116190000Y-66350000D03*
%TO.P,U4,6,J*%
%TO.N,Net-(U4A-J)*%
X116190000Y-63810000D03*
%TO.P,U4,5,K*%
X116190000Y-61270000D03*
%TO.P,U4,4,R*%
%TO.N,RESET*%
X116190000Y-58730000D03*
%TO.P,U4,3,C*%
%TO.N,CLOCK*%
X116190000Y-56190000D03*
%TO.P,U4,2,~{Q}*%
%TO.N,unconnected-(U4A-~{Q}-Pad2)*%
X116190000Y-53650000D03*
D11*
%TO.P,U4,1,Q*%
%TO.N,Q0*%
X116190000Y-51110000D03*
%TD*%
D12*
%TO.P,J1,1,Pin_1*%
%TO.N,GND*%
X96117500Y-47500000D03*
D13*
%TO.P,J1,2,Pin_2*%
%TO.N,VDD*%
X96117500Y-42500000D03*
%TD*%
D14*
%TO.P,D5,1,K*%
%TO.N,Net-(D5-K)*%
X141590000Y-42125000D03*
D15*
%TO.P,D5,2,A*%
%TO.N,Q3*%
X141590000Y-44665000D03*
%TD*%
D16*
%TO.P,C2,1*%
%TO.N,VDD*%
X123000000Y-31665000D03*
D17*
%TO.P,C2,2*%
%TO.N,GND*%
X125000000Y-31665000D03*
%TD*%
D18*
%TO.P,U1,1,FB*%
%TO.N,+5V*%
X111190000Y-38470000D03*
D17*
%TO.P,U1,2,SGND*%
%TO.N,GND*%
X113730000Y-38470000D03*
%TO.P,U1,3,~{ON}/OFF*%
X116270000Y-38470000D03*
%TO.P,U1,4,PGND*%
X118810000Y-38470000D03*
%TO.P,U1,5,VIN*%
%TO.N,VDD*%
X118810000Y-30850000D03*
%TO.P,U1,6,NC*%
%TO.N,unconnected-(U1-NC-Pad6)*%
X116270000Y-30850000D03*
%TO.P,U1,7,OUT*%
%TO.N,Net-(D1-K)*%
X113730000Y-30850000D03*
%TO.P,U1,8,NC*%
%TO.N,unconnected-(U1-NC-Pad8)*%
X111190000Y-30850000D03*
%TD*%
%TO.P,R6,1*%
%TO.N,Net-(D3-K)*%
X156560000Y-35450000D03*
%TO.P,R6,2*%
%TO.N,GND*%
X156560000Y-25290000D03*
%TD*%
D19*
%TO.P,D1,1,K*%
%TO.N,Net-(D1-K)*%
X107650000Y-42000000D03*
D20*
%TO.P,D1,2,A*%
%TO.N,GND*%
X120350000Y-42000000D03*
%TD*%
D14*
%TO.P,D3,1,K*%
%TO.N,Net-(D3-K)*%
X156530000Y-42125000D03*
D15*
%TO.P,D3,2,A*%
%TO.N,Q1*%
X156530000Y-44665000D03*
%TD*%
D17*
%TO.P,R7,1*%
%TO.N,Net-(D4-K)*%
X149060000Y-35450000D03*
%TO.P,R7,2*%
%TO.N,GND*%
X149060000Y-25290000D03*
%TD*%
%TO.P,R8,1*%
%TO.N,Net-(D5-K)*%
X141560000Y-35450000D03*
%TO.P,R8,2*%
%TO.N,GND*%
X141560000Y-25290000D03*
%TD*%
D21*
%TO.P,SW1,1,1*%
%TO.N,GND*%
X73750000Y-51750000D03*
X80250000Y-51750000D03*
%TO.P,SW1,2,2*%
%TO.N,Net-(R4-Pad1)*%
X73750000Y-56250000D03*
X80250000Y-56250000D03*
%TD*%
D22*
%TO.P,U3,*%
%TO.N,*%
X108500000Y-65600000D03*
X108500000Y-57400000D03*
D23*
%TO.P,U3,1,A*%
%TO.N,Q1*%
X108500000Y-63500000D03*
D24*
%TO.P,U3,2,GND*%
%TO.N,GND*%
X108500000Y-61500000D03*
%TO.P,U3,3,B*%
%TO.N,Q3*%
X108500000Y-59500000D03*
%TD*%
D25*
%TO.P,U7,1,CA*%
%TO.N,+5V*%
X165532500Y-54982500D03*
D17*
%TO.P,U7,2,F*%
%TO.N,Net-(U7-F)*%
X165532500Y-57522500D03*
%TO.P,U7,3,G*%
%TO.N,Net-(U7-G)*%
X165532500Y-60062500D03*
%TO.P,U7,4,E*%
%TO.N,Net-(U7-E)*%
X165532500Y-62602500D03*
%TO.P,U7,5,D*%
%TO.N,Net-(U7-D)*%
X165532500Y-65142500D03*
%TO.P,U7,6,CA*%
%TO.N,+5V*%
X170612500Y-65142500D03*
%TO.P,U7,7,DP*%
%TO.N,unconnected-(U7-DP-Pad7)*%
X170612500Y-62602500D03*
%TO.P,U7,8,C*%
%TO.N,Net-(U7-C)*%
X170612500Y-60062500D03*
%TO.P,U7,9,B*%
%TO.N,Net-(U7-B)*%
X170612500Y-57522500D03*
%TO.P,U7,10,A*%
%TO.N,Net-(U7-A)*%
X170612500Y-54982500D03*
%TD*%
D16*
%TO.P,C1,1*%
%TO.N,+5V*%
X103544888Y-31165000D03*
D17*
%TO.P,C1,2*%
%TO.N,GND*%
X105544888Y-31165000D03*
%TD*%
D26*
%TO.P,U2,1,GND*%
%TO.N,GND*%
X103305000Y-65310000D03*
D17*
%TO.P,U2,2,TR*%
%TO.N,Net-(U2-THR)*%
X103305000Y-62770000D03*
%TO.P,U2,3,Q*%
%TO.N,555*%
X103305000Y-60230000D03*
%TO.P,U2,4,R*%
%TO.N,+5V*%
X103305000Y-57690000D03*
%TO.P,U2,5,CV*%
%TO.N,unconnected-(U2-CV-Pad5)*%
X95685000Y-57690000D03*
%TO.P,U2,6,THR*%
%TO.N,Net-(U2-THR)*%
X95685000Y-60230000D03*
%TO.P,U2,7,DIS*%
%TO.N,Net-(U2-DIS)*%
X95685000Y-62770000D03*
%TO.P,U2,8,VCC*%
%TO.N,+5V*%
X95685000Y-65310000D03*
%TD*%
D14*
%TO.P,D4,1,K*%
%TO.N,Net-(D4-K)*%
X149060000Y-42125000D03*
D15*
%TO.P,D4,2,A*%
%TO.N,Q2*%
X149060000Y-44665000D03*
%TD*%
D27*
%TO.P,L1,1,1*%
%TO.N,Net-(D1-K)*%
X128000000Y-43665000D03*
%TO.P,L1,2,2*%
%TO.N,+5V*%
X128000000Y-40665000D03*
%TD*%
D14*
%TO.P,D2,1,K*%
%TO.N,Net-(D2-K)*%
X164000000Y-42125000D03*
D15*
%TO.P,D2,2,A*%
%TO.N,Q0*%
X164000000Y-44665000D03*
%TD*%
D11*
%TO.P,U6,1,B*%
%TO.N,Q1*%
X142000000Y-51460000D03*
D10*
%TO.P,U6,2,C*%
%TO.N,Q2*%
X142000000Y-54000000D03*
%TO.P,U6,3,LT*%
%TO.N,Net-(U6-BI)*%
X142000000Y-56540000D03*
%TO.P,U6,4,BI*%
X142000000Y-59080000D03*
%TO.P,U6,5,RBI*%
X142000000Y-61620000D03*
%TO.P,U6,6,D*%
%TO.N,Q3*%
X142000000Y-64160000D03*
%TO.P,U6,7,A*%
%TO.N,Q0*%
X142000000Y-66700000D03*
%TO.P,U6,8,GND*%
%TO.N,GND*%
X142000000Y-69240000D03*
%TO.P,U6,9,e*%
%TO.N,Net-(U6-e)*%
X149620000Y-69240000D03*
%TO.P,U6,10,d*%
%TO.N,Net-(U6-d)*%
X149620000Y-66700000D03*
%TO.P,U6,11,c*%
%TO.N,Net-(U6-c)*%
X149620000Y-64160000D03*
%TO.P,U6,12,b*%
%TO.N,Net-(U6-b)*%
X149620000Y-61620000D03*
%TO.P,U6,13,a*%
%TO.N,Net-(U6-a)*%
X149620000Y-59080000D03*
%TO.P,U6,14,g*%
%TO.N,Net-(U6-g)*%
X149620000Y-56540000D03*
%TO.P,U6,15,f*%
%TO.N,Net-(U6-f)*%
X149620000Y-54000000D03*
%TO.P,U6,16,VCC*%
%TO.N,+5V*%
X149620000Y-51460000D03*
%TD*%
D11*
%TO.P,U5,1,Q*%
%TO.N,Q2*%
X129190000Y-51110000D03*
D10*
%TO.P,U5,2,~{Q}*%
%TO.N,unconnected-(U5A-~{Q}-Pad2)*%
X129190000Y-53650000D03*
%TO.P,U5,3,C*%
%TO.N,Q1*%
X129190000Y-56190000D03*
%TO.P,U5,4,R*%
%TO.N,RESET*%
X129190000Y-58730000D03*
%TO.P,U5,5,K*%
%TO.N,Net-(U5A-J)*%
X129190000Y-61270000D03*
%TO.P,U5,6,J*%
X129190000Y-63810000D03*
%TO.P,U5,7,S*%
%TO.N,GND*%
X129190000Y-66350000D03*
%TO.P,U5,8,VSS*%
X129190000Y-68890000D03*
%TO.P,U5,9,S*%
%TO.N,RESET*%
X136810000Y-68890000D03*
%TO.P,U5,10,J*%
%TO.N,Net-(U5B-J)*%
X136810000Y-66350000D03*
%TO.P,U5,11,K*%
X136810000Y-63810000D03*
%TO.P,U5,12,R*%
%TO.N,GND*%
X136810000Y-61270000D03*
%TO.P,U5,13,C*%
%TO.N,Q2*%
X136810000Y-58730000D03*
%TO.P,U5,14,~{Q}*%
%TO.N,Q3*%
X136810000Y-56190000D03*
%TO.P,U5,15,Q*%
%TO.N,unconnected-(U5B-Q-Pad15)*%
X136810000Y-53650000D03*
%TO.P,U5,16,VDD*%
%TO.N,+5V*%
X136810000Y-51110000D03*
%TD*%
D17*
%TO.P,R5,1*%
%TO.N,Net-(D2-K)*%
X164000000Y-35450000D03*
%TO.P,R5,2*%
%TO.N,GND*%
X164000000Y-25290000D03*
%TD*%
D28*
%TO.P,SW2,1,B*%
%TO.N,CLOCK*%
X101040000Y-53000000D03*
D17*
%TO.P,SW2,2,C*%
%TO.N,555*%
X103580000Y-53000000D03*
%TO.P,SW2,3,A*%
%TO.N,Net-(SW2-A)*%
X98500000Y-53000000D03*
%TD*%
D29*
%TO.N,GND*%
X123500000Y-36000000D03*
%TO.N,Q1*%
X143000000Y-47500000D03*
%TO.N,Q2*%
X145500000Y-48000000D03*
%TO.N,Q3*%
X140250000Y-47750000D03*
%TO.N,RESET*%
X134710000Y-66790000D03*
%TO.N,Q1*%
X119981000Y-59981000D03*
%TO.N,Net-(U4A-J)*%
X109000000Y-71000000D03*
%TD*%
D30*
%TO.N,RESET*%
X131960000Y-61500000D02*
X129190000Y-58730000D01*
X131960000Y-64040000D02*
X131960000Y-61500000D01*
X134710000Y-66790000D02*
X131960000Y-64040000D01*
%TO.N,GND*%
X123500000Y-36000000D02*
X121030000Y-38470000D01*
X121030000Y-38470000D02*
X118810000Y-38470000D01*
%TO.N,Q1*%
X143000000Y-50460000D02*
X142000000Y-51460000D01*
X143000000Y-47500000D02*
X143000000Y-50460000D01*
%TO.N,Q2*%
X145500000Y-50500000D02*
X142000000Y-54000000D01*
X145500000Y-48000000D02*
X145500000Y-50500000D01*
%TO.N,Q3*%
X140250000Y-52750000D02*
X136810000Y-56190000D01*
X140250000Y-47750000D02*
X140250000Y-52750000D01*
%TO.N,Q1*%
X119981000Y-59981000D02*
X119981000Y-57479000D01*
X119981000Y-57479000D02*
X123810000Y-53650000D01*
%TO.N,Net-(U4A-J)*%
X109000000Y-71000000D02*
X116190000Y-63810000D01*
X116190000Y-63810000D02*
X116190000Y-61270000D01*
%TD*%
M02*
